<svg width="44" height="65" viewBox="0 0 44 65" fill="none" xmlns="http://www.w3.org/2000/svg">
<g clip-path="url(#clip0_568_353)">
<path d="M17.1529 3.36193C15.9841 2.60285 15.0728 1.50743 14.539 0.220044L14.4689 0.21849C12.5842 3.32921 13.3892 8.69918 13.3892 8.69918L14.3826 16.7799L22.467 15.7718L21.0911 4.4937C20.3296 4.69068 18.9895 4.6907 17.1529 3.36193Z" fill="#B96477"/>
<path d="M17.153 3.36193C18.9896 4.6907 20.3297 4.69068 21.0912 4.4937L21.0531 4.20221C20.3695 3.06189 19.4199 2.10407 18.2855 1.4106C17.1511 0.717126 15.8657 0.308637 14.5391 0.220043C15.0729 1.50743 15.9842 2.60285 17.153 3.36193Z" fill="#974959"/>
<path d="M21.1046 37.4977L14.9537 38.2597L17.9306 62.1642L24.0834 61.3948L30.2343 60.6327L27.2574 36.7282L21.1046 37.4977Z" fill="#3E3C3C"/>
<path d="M18.3774 15.5746L13.195 16.2219L15.748 36.7151L20.9286 36.0752L26.1109 35.428L23.5597 14.9273L18.3774 15.5746Z" fill="#EEC3CC"/>
<path d="M20.7988 35.0402L14.0556 35.8841L14.5101 39.5223L21.2514 38.6858L28.0019 37.8437L27.5475 34.2056L20.7988 35.0402Z" fill="#CA8896"/>
</g>
<defs>
<clipPath id="clip0_568_353">
<rect width="30.0467" height="59.477" fill="white" transform="translate(14.1855) rotate(13.7983)"/>
</clipPath>
</defs>
</svg>
