<svg width="490" height="498" viewBox="0 0 490 498" fill="none" xmlns="http://www.w3.org/2000/svg">
<path d="M460.551 407.494C455.331 413.014 449.845 418.267 444.091 423.254C438.351 428.254 432.321 432.904 426.151 437.354C423.071 439.604 419.901 441.714 416.741 443.854C413.581 445.994 410.341 447.984 407.061 449.924C400.528 453.864 393.861 457.567 387.061 461.034C359.766 474.905 330.709 484.998 300.691 491.034C293.161 492.514 285.591 493.744 277.951 494.654C270.311 495.564 262.621 496.064 254.951 496.264C192.367 497.832 131.491 475.754 84.4614 434.434C49.2148 403.597 23.5794 363.274 10.6114 318.274C-6.57858 258.694 -0.538584 193.014 27.3514 137.884C55.2737 82.1808 103.098 38.9963 161.351 16.8835C175.723 11.4611 190.571 7.39667 205.701 4.74354C220.825 2.1027 236.16 0.854137 251.511 1.01354C282.205 1.20545 312.634 6.69263 341.461 17.2335C370.272 27.8332 396.715 44.0006 419.281 64.8135C430.502 75.2168 440.594 86.774 449.391 99.2935C458.159 111.798 465.559 125.208 471.461 139.294C477.356 153.364 481.744 168.019 484.551 183.014C487.351 198.003 488.631 213.237 488.371 228.484C488.161 232.324 487.721 236.114 487.141 239.884C486.561 243.654 485.831 247.394 484.921 251.104C483.061 258.504 480.641 265.864 476.741 272.494C473.021 279.104 468.531 285.494 462.741 290.544C456.951 295.594 450.041 299.064 443.391 302.624L442.841 301.624C449.461 298.014 456.211 294.494 461.741 289.474C467.183 284.328 471.719 278.304 475.161 271.654C478.681 265.038 481.278 257.973 482.881 250.654C483.731 246.994 484.401 243.304 484.881 239.584C485.429 235.888 485.779 232.166 485.931 228.434C486.14 198.286 480.103 168.423 468.201 140.724C462.23 126.95 454.801 113.855 446.041 101.664C437.274 89.5091 427.252 78.3108 416.141 68.2535C393.829 48.1959 367.788 32.7253 339.501 22.7235C311.25 12.6944 281.48 7.61981 251.501 7.72354C236.57 7.69398 221.668 9.03291 206.981 11.7235C166.627 19.1205 128.863 36.8041 97.3416 63.0645C65.8202 89.325 41.6072 123.274 27.0438 161.629C12.4804 199.984 8.05911 241.448 14.2075 282.012C20.3559 322.576 36.866 360.867 62.1414 393.184C98.8611 440.398 151.742 472.367 210.611 482.944C225.207 485.634 240.02 486.973 254.861 486.944C262.301 486.944 269.731 486.524 277.111 485.874C284.491 485.224 291.921 484.204 299.281 482.974C314.028 480.433 328.588 476.905 342.861 472.414C350.021 470.214 357.091 467.704 364.091 464.974C371.091 462.244 378.091 459.344 384.811 456.194C391.531 453.044 398.341 449.684 404.931 446.054C408.241 444.274 411.441 442.334 414.711 440.474C417.981 438.614 421.131 436.564 424.271 434.474C430.561 430.364 436.731 426.044 442.641 421.374C448.551 416.704 454.321 411.844 459.791 406.634L460.551 407.494Z" fill="#422637"/>
<path d="M145.371 371.324V370.824C145.811 370.827 146.249 370.79 146.681 370.714C146.971 370.671 147.238 370.534 147.441 370.324C147.637 370.106 147.759 369.834 147.791 369.544C147.862 369.121 147.892 368.692 147.881 368.264V356.524L141.071 371.304H140.661L133.871 356.524V368.244C133.863 368.678 133.889 369.113 133.951 369.544C133.99 369.832 134.112 370.103 134.301 370.324C134.497 370.533 134.758 370.67 135.041 370.714C135.478 370.783 135.92 370.813 136.361 370.804V371.304H130.271V370.804C130.71 370.81 131.149 370.777 131.581 370.704C131.862 370.652 132.12 370.516 132.321 370.314C132.514 370.093 132.629 369.816 132.651 369.524C132.712 369.1 132.742 368.672 132.741 368.244V356.784C132.742 356.381 132.702 355.979 132.621 355.584C132.564 355.29 132.429 355.017 132.231 354.794C132.031 354.58 131.774 354.428 131.491 354.354C131.093 354.252 130.683 354.205 130.271 354.214V353.734H135.271L141.651 367.474L147.921 353.734H152.921V354.194C152.476 354.192 152.031 354.225 151.591 354.294C151.305 354.345 151.04 354.481 150.831 354.684C150.649 354.91 150.535 355.184 150.501 355.474C150.44 355.901 150.413 356.332 150.421 356.764V368.244C150.416 368.679 150.446 369.113 150.511 369.544C150.542 369.832 150.66 370.105 150.851 370.324C151.05 370.535 151.314 370.673 151.601 370.714C152.038 370.784 152.48 370.814 152.921 370.804V371.304L145.371 371.324Z" fill="#422637"/>
<path d="M172.231 369.604C172.081 369.814 171.891 370.054 171.691 370.284C171.491 370.514 171.27 370.724 171.031 370.914C170.804 371.106 170.548 371.261 170.271 371.374C170.005 371.499 169.715 371.563 169.421 371.564C169.193 371.574 168.966 371.515 168.771 371.394C168.59 371.286 168.441 371.13 168.341 370.944C168.234 370.747 168.16 370.534 168.121 370.314C168.09 370.082 168.073 369.848 168.071 369.614L167.201 370.304C166.905 370.53 166.594 370.737 166.271 370.924C165.98 371.112 165.668 371.267 165.341 371.384C164.614 371.663 163.809 371.663 163.081 371.384C162.727 371.239 162.409 371.017 162.151 370.734C161.907 370.464 161.719 370.148 161.601 369.804C161.474 369.413 161.409 369.004 161.411 368.594C161.408 368.128 161.525 367.67 161.751 367.264C161.984 366.852 162.281 366.481 162.631 366.164C163.015 365.812 163.434 365.5 163.881 365.234C164.347 364.966 164.828 364.725 165.321 364.514C165.821 364.304 166.321 364.114 166.781 363.954L168.031 363.524V363.014C168.03 362.622 168.003 362.231 167.951 361.844C167.912 361.492 167.803 361.153 167.631 360.844C167.482 360.549 167.249 360.306 166.961 360.144C166.609 359.953 166.211 359.863 165.811 359.884C165.493 359.874 165.176 359.932 164.881 360.054C164.663 360.15 164.478 360.31 164.351 360.514C164.226 360.732 164.148 360.973 164.121 361.224C164.085 361.515 164.068 361.809 164.071 362.104C164.092 362.43 164.012 362.755 163.841 363.034C163.733 363.156 163.596 363.251 163.443 363.308C163.289 363.366 163.124 363.385 162.961 363.364C162.805 363.38 162.646 363.355 162.501 363.294C162.355 363.236 162.226 363.139 162.131 363.014C161.948 362.74 161.863 362.412 161.891 362.084C161.873 361.593 162.021 361.11 162.311 360.714C162.602 360.334 162.966 360.018 163.381 359.784C163.82 359.536 164.297 359.36 164.791 359.264C165.26 359.152 165.74 359.095 166.221 359.094C166.848 359.084 167.473 359.154 168.081 359.304C168.545 359.426 168.966 359.671 169.301 360.014C169.631 360.368 169.862 360.802 169.971 361.274C170.113 361.883 170.18 362.508 170.171 363.134V368.214C170.166 368.548 170.19 368.883 170.241 369.214C170.281 369.366 170.338 369.514 170.411 369.654C170.453 369.721 170.511 369.776 170.581 369.814C170.657 369.829 170.735 369.829 170.811 369.814C170.938 369.802 171.058 369.757 171.161 369.684L171.571 369.384L171.951 369.024L172.221 368.764L172.231 369.604ZM168.041 364.204L166.681 364.754C166.172 364.964 165.683 365.222 165.221 365.524C164.788 365.794 164.4 366.132 164.071 366.524C163.758 366.907 163.591 367.389 163.601 367.884C163.605 368.142 163.649 368.399 163.731 368.644C163.803 368.897 163.922 369.134 164.081 369.344C164.243 369.544 164.44 369.713 164.661 369.844C164.907 369.966 165.177 370.031 165.451 370.034C165.684 370.03 165.914 369.986 166.131 369.904C166.372 369.825 166.603 369.721 166.821 369.594C167.046 369.462 167.263 369.318 167.471 369.164L168.041 368.714V364.204Z" fill="#422637"/>
<path d="M187.001 371.324V370.824H187.261L187.531 370.764C187.611 370.732 187.682 370.685 187.741 370.624C187.795 370.555 187.823 370.47 187.821 370.384C187.82 370.188 187.761 369.996 187.651 369.834C187.541 369.654 187.431 369.504 187.331 369.354L183.701 364.774V369.654C183.713 369.893 183.789 370.124 183.921 370.324C184.062 370.51 184.264 370.641 184.491 370.694C184.847 370.767 185.209 370.8 185.571 370.794V371.294H179.471V370.794C179.823 370.802 180.175 370.775 180.521 370.714C180.745 370.666 180.95 370.555 181.111 370.394C181.264 370.208 181.358 369.982 181.381 369.744C181.426 369.392 181.446 369.038 181.441 368.684V356.504C181.441 356.27 181.441 356.04 181.441 355.814C181.426 355.598 181.379 355.386 181.301 355.184C181.243 355.014 181.152 354.857 181.031 354.724C180.971 354.671 180.904 354.627 180.831 354.594C180.749 354.578 180.664 354.578 180.581 354.594C180.438 354.592 180.296 354.616 180.161 354.664L179.741 354.804L179.491 354.354L183.081 352.954H183.661V364.534L186.661 361.994L186.971 361.724C187.101 361.604 187.241 361.484 187.381 361.344C187.513 361.211 187.636 361.07 187.751 360.924C187.834 360.816 187.886 360.688 187.901 360.554C187.911 360.444 187.883 360.335 187.821 360.244C187.761 360.154 187.679 360.081 187.581 360.034C187.39 359.944 187.183 359.893 186.971 359.884V359.494H192.111V359.884C191.776 359.887 191.441 359.92 191.111 359.984C190.828 360.035 190.553 360.123 190.291 360.244C190.034 360.355 189.792 360.5 189.571 360.674C189.301 360.86 189.044 361.063 188.801 361.284L185.651 364.014L188.781 367.914L189.401 368.714C189.601 368.974 189.821 369.224 190.041 369.464C190.477 369.954 190.991 370.369 191.561 370.694C191.737 370.774 191.929 370.812 192.121 370.804H192.681V371.304L187.001 371.324Z" fill="#422637"/>
<path d="M210.611 367.014C210.447 368.247 209.894 369.396 209.031 370.294C208.606 370.726 208.108 371.081 207.561 371.344C206.991 371.607 206.37 371.74 205.741 371.734C204.959 371.749 204.185 371.566 203.491 371.204C202.859 370.855 202.31 370.374 201.881 369.794C201.431 369.192 201.093 368.515 200.881 367.794C200.672 367.055 200.561 366.291 200.551 365.524C200.549 364.692 200.664 363.864 200.891 363.064C201.101 362.342 201.44 361.664 201.891 361.064C202.357 360.475 202.943 359.994 203.611 359.654C204.373 359.293 205.209 359.115 206.051 359.134C206.706 359.123 207.356 359.246 207.961 359.494C208.502 359.724 208.989 360.064 209.391 360.494C209.8 360.937 210.116 361.457 210.321 362.024C210.524 362.67 210.615 363.346 210.591 364.024H202.391C202.389 364.682 202.476 365.338 202.651 365.974C202.803 366.635 203.071 367.265 203.441 367.834C203.794 368.366 204.249 368.821 204.781 369.174C205.368 369.523 206.039 369.703 206.721 369.694C207.142 369.701 207.56 369.626 207.951 369.474C208.296 369.333 208.611 369.129 208.881 368.874C209.168 368.6 209.414 368.287 209.611 367.944C209.831 367.587 210.012 367.208 210.151 366.814L210.611 367.014ZM207.891 363.204C207.891 362.809 207.841 362.416 207.741 362.034C207.655 361.673 207.498 361.334 207.281 361.034C207.065 360.743 206.793 360.499 206.481 360.314C206.126 360.13 205.731 360.038 205.331 360.044C204.919 360.043 204.513 360.135 204.141 360.314C203.791 360.487 203.475 360.725 203.211 361.014C202.967 361.313 202.774 361.651 202.641 362.014C202.492 362.391 202.401 362.789 202.371 363.194L207.891 363.204Z" fill="#422637"/>
<path d="M228.171 371.714H227.581V369.174C227.311 369.454 227.031 369.754 226.731 370.054C226.44 370.345 226.13 370.615 225.801 370.864C225.471 371.105 225.116 371.31 224.741 371.474C224.368 371.632 223.967 371.714 223.561 371.714C223.009 371.743 222.461 371.592 222.001 371.284C221.602 371.003 221.281 370.624 221.071 370.184C220.842 369.714 220.69 369.211 220.621 368.694C220.55 368.163 220.513 367.629 220.511 367.094V361.784C220.513 361.471 220.48 361.159 220.411 360.854C220.353 360.636 220.231 360.442 220.061 360.294C219.877 360.153 219.66 360.061 219.431 360.024C219.124 359.974 218.813 359.954 218.501 359.964V359.474H222.691V367.394C222.693 367.728 222.72 368.063 222.771 368.394C222.82 368.693 222.922 368.98 223.071 369.244C223.208 369.5 223.412 369.714 223.661 369.864C223.969 370.026 224.314 370.105 224.661 370.094C224.949 370.096 225.235 370.041 225.501 369.934C225.782 369.837 226.047 369.702 226.291 369.534C226.546 369.385 226.783 369.211 227.001 369.014C227.221 368.824 227.431 368.614 227.611 368.424V361.714C227.622 361.399 227.582 361.085 227.491 360.784C227.439 360.58 227.323 360.398 227.161 360.264C226.983 360.126 226.774 360.033 226.551 359.994C226.264 359.949 225.973 359.929 225.681 359.934V359.454H229.761V368.684C229.771 368.883 229.801 369.081 229.851 369.274C229.898 369.453 229.983 369.62 230.101 369.764C230.153 369.833 230.221 369.888 230.3 369.923C230.379 369.958 230.466 369.972 230.551 369.964C230.914 369.961 231.273 369.894 231.611 369.764L231.791 370.224L228.171 371.714Z" fill="#422637"/>
<path d="M251.171 364.944C251.164 365.762 251.049 366.575 250.831 367.364C250.621 368.134 250.283 368.864 249.831 369.524C249.376 370.162 248.794 370.699 248.121 371.104C247.399 371.521 246.576 371.732 245.741 371.714C245.226 371.715 244.714 371.624 244.231 371.444C243.748 371.254 243.307 370.972 242.931 370.614V374.244C242.907 374.606 242.907 374.971 242.931 375.334C242.951 375.58 243.041 375.817 243.191 376.014C243.341 376.201 243.549 376.335 243.781 376.394C244.141 376.485 244.51 376.532 244.881 376.534V377.034H238.621V376.534C239.002 376.53 239.38 376.487 239.751 376.404C239.991 376.347 240.205 376.214 240.361 376.024C240.504 375.82 240.59 375.582 240.611 375.334C240.651 374.948 240.671 374.561 240.671 374.174V362.294C240.675 362.064 240.648 361.836 240.591 361.614C240.553 361.415 240.459 361.231 240.321 361.084C240.241 361.003 240.141 360.944 240.031 360.914C239.919 360.889 239.803 360.889 239.691 360.914C239.389 360.905 239.09 360.974 238.821 361.114L238.681 360.654L242.401 359.174H242.891V361.964C243.101 361.617 243.332 361.283 243.581 360.964C243.822 360.617 244.108 360.304 244.431 360.034C244.731 359.771 245.068 359.555 245.431 359.394C245.82 359.227 246.239 359.142 246.661 359.144C247.365 359.137 248.057 359.324 248.661 359.684C249.219 360.042 249.693 360.516 250.051 361.074C250.413 361.648 250.683 362.276 250.851 362.934C251.042 363.587 251.149 364.263 251.171 364.944ZM249.091 366.184C249.092 365.584 249.041 364.985 248.941 364.394C248.854 363.782 248.679 363.186 248.421 362.624C248.194 362.096 247.852 361.624 247.421 361.244C246.933 360.866 246.328 360.671 245.711 360.694C245.428 360.693 245.149 360.766 244.901 360.904C244.632 361.043 244.38 361.214 244.151 361.414C243.92 361.612 243.703 361.825 243.501 362.054L242.941 362.694V367.134C242.943 367.605 242.97 368.075 243.021 368.544C243.073 368.967 243.202 369.377 243.401 369.754C243.602 370.101 243.892 370.387 244.241 370.584C244.698 370.806 245.203 370.913 245.711 370.894C246.284 370.915 246.849 370.762 247.331 370.454C247.747 370.159 248.09 369.772 248.331 369.324C248.605 368.851 248.801 368.338 248.911 367.804C249.031 367.272 249.091 366.729 249.091 366.184Z" fill="#422637"/>
<path d="M286.061 371.324V370.824H286.661C286.856 370.796 287.045 370.739 287.221 370.654C287.391 370.578 287.539 370.461 287.651 370.314C287.78 370.152 287.844 369.949 287.831 369.744C287.807 369.425 287.736 369.112 287.621 368.814C287.481 368.404 287.331 367.974 287.161 367.544C286.991 367.114 286.811 366.704 286.651 366.324L286.281 365.514H279.471C279.422 365.674 279.348 365.826 279.251 365.964C279.151 366.174 279.051 366.424 278.921 366.694C278.791 366.964 278.671 367.254 278.551 367.544C278.431 367.834 278.301 368.134 278.191 368.424C278.081 368.714 278.001 368.944 277.921 369.214C277.867 369.399 277.834 369.59 277.821 369.784C277.818 369.886 277.835 369.988 277.871 370.084C277.91 370.18 277.972 370.266 278.051 370.334C278.201 370.489 278.387 370.605 278.591 370.674C278.808 370.755 279.033 370.812 279.261 370.844L279.871 370.894V371.394H274.291V370.894C274.667 370.892 275.036 370.792 275.361 370.604C275.662 370.42 275.926 370.182 276.141 369.904C276.368 369.616 276.563 369.304 276.721 368.974C276.881 368.624 277.031 368.274 277.181 367.974L283.391 353.514H283.841L289.941 368.084C290.111 368.484 290.271 368.844 290.431 369.184C290.571 369.52 290.76 369.833 290.991 370.114C291.206 370.376 291.475 370.588 291.781 370.734C292.164 370.912 292.58 371.007 293.001 371.014V371.514L286.061 371.324ZM282.931 357.374L279.871 364.524H285.921L282.931 357.374Z" fill="#422637"/>
<path d="M309.301 360.534C309.293 360.852 309.165 361.156 308.941 361.384C308.839 361.504 308.709 361.597 308.561 361.654C308.419 361.713 308.266 361.744 308.111 361.744C307.921 361.746 307.733 361.694 307.571 361.594C307.402 361.503 307.239 361.403 307.081 361.294L306.661 360.984C306.552 360.891 306.415 360.838 306.271 360.834C306.069 360.845 305.879 360.935 305.741 361.084C305.559 361.266 305.392 361.464 305.241 361.674C305.089 361.885 304.948 362.106 304.821 362.334L304.551 362.824V368.604C304.511 369.201 304.662 369.797 304.981 370.304C305.199 370.512 305.458 370.672 305.741 370.774C306.029 370.865 306.332 370.892 306.631 370.854V371.364H300.491V370.854C300.828 370.862 301.164 370.829 301.491 370.754C301.714 370.701 301.911 370.574 302.051 370.394C302.191 370.193 302.271 369.957 302.281 369.714C302.281 369.434 302.331 369.094 302.331 368.714V363.324C302.339 363.033 302.322 362.742 302.281 362.454C302.269 362.171 302.233 361.89 302.171 361.614C302.166 361.402 302.107 361.196 302.001 361.014C301.793 360.913 301.563 360.865 301.331 360.874C301.053 360.875 300.777 360.933 300.521 361.044L300.381 360.574L304.041 359.134H304.541V361.824C304.702 361.503 304.882 361.192 305.081 360.894C305.286 360.584 305.517 360.293 305.771 360.024C306.019 359.762 306.302 359.537 306.611 359.354C306.916 359.179 307.26 359.086 307.611 359.084C307.818 359.092 308.023 359.126 308.221 359.184C308.617 359.298 308.951 359.564 309.151 359.924C309.245 360.114 309.296 360.322 309.301 360.534Z" fill="#422637"/>
<path d="M323.761 369.134C323.662 369.459 323.524 369.771 323.351 370.064C323.177 370.37 322.954 370.647 322.691 370.884C322.437 371.124 322.147 371.323 321.831 371.474C321.518 371.618 321.177 371.693 320.831 371.694C320.431 371.714 320.034 371.624 319.681 371.434C319.383 371.261 319.132 371.017 318.951 370.724C318.762 370.418 318.637 370.078 318.581 369.724C318.513 369.354 318.48 368.979 318.481 368.604V360.334H316.601V359.944C317.052 359.766 317.468 359.513 317.831 359.194C318.202 358.87 318.537 358.508 318.831 358.114C319.132 357.705 319.399 357.274 319.631 356.824C319.871 356.384 320.071 355.954 320.251 355.534H320.641V359.454H323.431V360.334H320.641V368.264C320.627 368.473 320.627 368.684 320.641 368.894C320.661 369.113 320.711 369.328 320.791 369.534C320.869 369.73 320.992 369.905 321.151 370.044C321.32 370.174 321.529 370.241 321.741 370.234C322.078 370.253 322.41 370.146 322.671 369.934C322.914 369.713 323.102 369.439 323.221 369.134H323.761Z" fill="#422637"/>
<path d="M331.791 371.324V370.824C332.104 370.828 332.416 370.798 332.721 370.734C332.953 370.718 333.172 370.623 333.341 370.464C333.482 370.295 333.572 370.091 333.601 369.874C333.65 369.566 333.673 369.255 333.671 368.944V362.074C333.651 361.881 333.614 361.69 333.561 361.504C333.512 361.327 333.415 361.168 333.281 361.044C333.216 360.976 333.138 360.922 333.051 360.884C332.962 360.868 332.871 360.868 332.781 360.884C332.629 360.884 332.478 360.904 332.331 360.944L331.851 361.084L331.681 360.624L335.271 359.184H335.841V368.984C335.84 369.295 335.863 369.606 335.911 369.914C335.945 370.132 336.038 370.336 336.181 370.504C336.326 370.664 336.519 370.772 336.731 370.814C337.037 370.876 337.349 370.903 337.661 370.894V371.404L331.791 371.324ZM336.001 355.404C336.001 355.574 335.971 355.744 335.911 355.904C335.846 356.063 335.751 356.209 335.631 356.334C335.514 356.462 335.371 356.564 335.211 356.634C335.05 356.701 334.876 356.735 334.701 356.734C334.354 356.731 334.021 356.595 333.771 356.354C333.647 356.233 333.549 356.088 333.484 355.928C333.418 355.768 333.387 355.596 333.391 355.424C333.382 355.249 333.412 355.074 333.481 354.914C333.544 354.753 333.643 354.609 333.771 354.494C333.893 354.371 334.04 354.276 334.201 354.214C334.441 354.113 334.706 354.087 334.961 354.139C335.216 354.191 335.449 354.318 335.631 354.504C335.756 354.616 335.852 354.757 335.911 354.914C335.971 355.07 336.002 355.236 336.001 355.404Z" fill="#422637"/>
<path d="M354.641 368.324C354.649 368.814 354.525 369.298 354.281 369.724C354.041 370.132 353.725 370.492 353.351 370.784C352.576 371.378 351.628 371.705 350.651 371.714C350.363 371.716 350.076 371.672 349.801 371.584C349.501 371.504 349.221 371.404 348.941 371.304L348.161 371.014C347.943 370.934 347.713 370.894 347.481 370.894H347.401C347.401 370.894 347.401 370.894 347.331 370.954C347.261 371.014 347.241 371.064 347.201 371.114C347.161 371.181 347.124 371.252 347.091 371.324L347.021 371.474H346.571V367.244H347.001C347.088 367.71 347.233 368.163 347.431 368.594C347.616 369.022 347.869 369.417 348.181 369.764C348.478 370.098 348.838 370.371 349.241 370.564C349.673 370.777 350.15 370.883 350.631 370.874C350.892 370.872 351.151 370.835 351.401 370.764C351.637 370.691 351.858 370.576 352.051 370.424C352.238 370.274 352.392 370.087 352.501 369.874C352.621 369.638 352.679 369.377 352.671 369.114C352.692 368.614 352.532 368.125 352.221 367.734C351.9 367.339 351.514 367.001 351.081 366.734C350.602 366.438 350.108 366.168 349.601 365.924C349.088 365.665 348.594 365.371 348.121 365.044C347.677 364.73 347.291 364.341 346.981 363.894C346.66 363.405 346.502 362.827 346.531 362.244C346.512 361.754 346.622 361.267 346.851 360.834C347.068 360.446 347.361 360.106 347.711 359.834C348.085 359.571 348.501 359.375 348.941 359.254C349.408 359.13 349.889 359.066 350.371 359.064C350.593 359.07 350.814 359.097 351.031 359.144C351.255 359.183 351.475 359.236 351.691 359.304L352.331 359.464C352.545 359.512 352.763 359.536 352.981 359.534C353.105 359.529 353.222 359.479 353.311 359.394C353.399 359.294 353.473 359.183 353.531 359.064H354.001V363.134H353.541C353.443 362.711 353.313 362.296 353.151 361.894C352.992 361.515 352.78 361.162 352.521 360.844C352.268 360.53 351.951 360.275 351.591 360.094C351.201 359.896 350.768 359.8 350.331 359.814C350.07 359.814 349.809 359.834 349.551 359.874C349.293 359.923 349.041 360.004 348.801 360.114C348.581 360.229 348.392 360.398 348.251 360.604C348.102 360.847 348.029 361.129 348.041 361.414C348.022 361.922 348.197 362.419 348.531 362.804C348.883 363.18 349.295 363.494 349.751 363.734C350.264 364.015 350.792 364.269 351.331 364.494C351.879 364.732 352.408 365.012 352.911 365.334C353.392 365.638 353.807 366.036 354.131 366.504C354.498 367.037 354.677 367.677 354.641 368.324Z" fill="#422637"/>
<path d="M370.001 369.134C369.902 369.459 369.764 369.771 369.591 370.064C369.414 370.369 369.191 370.645 368.931 370.884C368.677 371.124 368.387 371.323 368.071 371.474C367.758 371.618 367.417 371.693 367.071 371.694C366.672 371.714 366.274 371.624 365.921 371.434C365.625 371.262 365.377 371.018 365.201 370.724C365.009 370.419 364.88 370.079 364.821 369.724C364.75 369.338 364.713 368.946 364.711 368.554V360.334H362.851V359.944C363.302 359.766 363.718 359.513 364.081 359.194C364.454 358.872 364.79 358.51 365.081 358.114C365.382 357.703 365.652 357.272 365.891 356.824C366.121 356.384 366.331 355.954 366.501 355.534H366.901V359.454H369.691V360.334H366.901V368.264C366.881 368.473 366.881 368.684 366.901 368.894C366.924 369.113 366.978 369.329 367.061 369.534C367.135 369.732 367.259 369.908 367.421 370.044C367.59 370.174 367.799 370.241 368.011 370.234C368.348 370.253 368.68 370.146 368.941 369.934C369.191 369.717 369.384 369.442 369.501 369.134H370.001Z" fill="#422637"/>
<path d="M86.0014 260.954H90.1314V154.534H90.4014L128.751 260.954H176.451L135.611 150.114H69.4314V153.694H86.0014V260.954Z" fill="#422637"/>
<path d="M147.351 312.654L159.351 345.884H163.491L175.361 312.654H147.351Z" fill="#422637"/>
<path d="M90.1114 312.654H86.0014V339.544H69.4314V343.124H106.651V339.544H90.1114V312.654Z" fill="#422637"/>
<path d="M352.371 312.654H308.801V339.544H276.231V312.654H232.111V339.544H215.571V343.124H370.571V339.544H352.371V312.654Z" fill="#422637"/>
<path d="M229.081 150.104L189.441 260.934H193.801L231.801 154.514H232.081V260.944H276.201V153.694H308.751V260.944H352.311V247.734H363.101C369.441 247.734 376.611 247.734 381.841 248.564C401.421 250.494 408.841 261.564 409.691 279.454H413.301V216.284H409.721C408.341 231.724 400.071 241.104 381.601 243.024C377.461 243.854 370.601 243.854 364.221 243.854H352.361V154.014H368.671C384.121 154.014 397.901 154.564 408.111 159.804C418.031 165.314 424.651 175.514 426.571 195.134H430.441V150.134L229.081 150.104Z" fill="#422637"/>
<path d="M92.2114 293.494C91.7871 294.559 91.2718 295.586 90.6714 296.564C89.8838 297.536 89.0283 298.452 88.1114 299.304C87.2751 299.142 86.4689 298.852 85.7214 298.444C85.3814 298.194 85.3014 296.994 85.3014 295.974C85.3014 295.204 85.3814 294.534 85.3814 294.434C85.7214 288.984 86.6614 282.594 86.6614 277.144V276.464C83.8104 280.805 81.3027 285.362 79.1614 290.094C76.1614 296.484 73.3714 302.884 70.9914 309.514C70.6414 310.444 70.6414 311.654 69.9914 312.304C68.9914 313.234 67.8614 314.094 67.0914 314.094C66.5814 314.094 66.2414 313.754 66.2414 312.734C66.3148 311.988 66.4283 311.247 66.5814 310.514C69.0769 296.015 72.3482 281.661 76.3814 267.514C76.6488 266.203 77.2324 264.977 78.0814 263.944C78.7714 264.194 79.5314 264.444 80.2114 264.704C80.0319 265.817 79.7197 266.905 79.2814 267.944C75.2832 280.331 72.1818 292.991 70.0014 305.824C74.4314 296.124 77.6714 285.634 83.4714 276.684C84.4014 275.234 85.4714 272.684 87.3814 272.684C88.1659 272.723 88.915 273.022 89.5114 273.534C89.7888 273.879 89.993 274.277 90.1114 274.704C90.226 275.127 90.2565 275.568 90.2014 276.004V277.114C90.2014 283.684 88.6714 288.534 88.4914 294.584C92.6614 288.194 96.1614 280.864 99.5714 273.794C102.131 268.424 105.111 263.304 107.011 257.594C107.181 257.084 107.091 256.244 107.611 256.064C108.05 255.922 108.511 255.865 108.971 255.894C109.651 255.894 110.421 255.984 111.101 255.984H111.351C111.271 256.984 111.271 258.194 111.101 259.214C110.841 260.584 110.331 261.774 110.001 263.144C107.521 272.144 105.231 281.454 103.491 291.144C101.361 303.414 102.811 294.044 101.191 305.464C100.931 307.244 100.421 309.044 100.341 310.824C100.251 312.194 100.251 313.554 100.251 314.914H100.001C99.4147 311.947 99.0802 308.936 99.0014 305.914C99.1413 300.931 99.7101 295.969 100.701 291.084C102.241 282.714 104.121 273.784 105.821 265.424C100.891 274.584 96.8914 284.014 92.2114 293.494Z" fill="#422637"/>
<path d="M118.871 310.544C115.871 310.544 114.351 307.994 114.351 304.544C114.481 301.047 115.64 297.666 117.681 294.824C118.101 294.234 118.531 293.714 118.961 293.204C119.811 292.354 121.261 290.564 122.671 290.564C122.761 290.564 122.941 290.654 123.021 290.654C123.809 290.067 124.76 289.742 125.741 289.724C128.381 289.724 130.181 292.514 130.181 295.724C130.127 297.304 129.837 298.868 129.321 300.364C131.047 301.254 132.96 301.721 134.901 301.724C138.029 301.486 140.993 300.232 143.341 298.154L144.191 299.154C140.956 301.942 136.878 303.562 132.611 303.754C131.079 303.754 129.556 303.525 128.091 303.074C126.121 307.134 122.701 310.544 118.871 310.544ZM121.351 297.424C119.891 299.894 117.851 303.934 117.851 306.034C117.851 307.654 118.361 308.244 119.121 308.244C121.601 308.244 124.701 306.244 126.631 302.534C125.453 302.089 124.377 301.409 123.471 300.534C122.562 299.651 121.84 298.593 121.351 297.424ZM128.081 296.494C128.081 294.794 126.961 293.174 125.951 293.174C125.341 293.174 124.831 293.684 124.831 294.954C124.831 296.494 125.951 298.204 127.731 299.474C127.939 298.486 128.056 297.482 128.081 296.474V296.494Z" fill="#422637"/>
<path d="M155.931 294.944C156.166 294.931 156.4 294.965 156.621 295.044C158.841 295.884 159.091 297.934 159.091 299.894C159.091 301.174 158.751 302.784 158.751 303.984C158.751 304.984 159.001 305.684 159.861 305.684C163.861 305.684 173.571 300.574 175.961 298.194L176.821 299.194C174.341 301.664 162.411 308.824 157.041 308.824C155.181 308.824 154.661 307.974 154.661 306.344C154.661 304.994 154.991 303.024 154.991 300.634C154.991 300.384 154.911 299.534 154.831 298.934C151.001 300.984 148.691 302.654 146.651 305.244C146.561 305.324 144.521 307.884 144.261 308.144C143.581 308.734 142.811 309.074 142.141 309.594C141.361 309.164 140.001 309.084 140.001 307.884C140.018 307.335 140.105 306.79 140.261 306.264C141.531 300.474 142.261 295.444 142.901 290.454C143.151 290.454 143.491 290.364 143.751 290.364C146.051 290.364 146.911 292.504 146.911 294.454C146.752 296.581 146.291 298.676 145.541 300.674C145.291 301.674 144.861 302.724 144.541 303.744C146.841 301.694 149.481 300.164 151.611 297.864C152.611 296.914 154.321 294.944 155.931 294.944Z" fill="#422637"/>
<path d="M176.201 296.664C176.801 295.124 177.571 294.434 178.251 294.434C179.181 294.434 179.871 295.554 179.871 297.174C179.875 297.898 179.757 298.618 179.521 299.304C178.931 300.684 178.56 302.148 178.421 303.644C178.421 304.924 179.011 305.644 180.031 305.644C183.281 305.644 189.161 300.644 191.551 298.204L192.391 299.204C189.941 301.684 182.521 308.204 176.991 308.204C175.701 308.204 174.761 307.524 174.761 305.204C174.793 303.53 175.052 301.868 175.531 300.264C175.638 299.045 175.863 297.839 176.201 296.664ZM177.391 282.084C177.391 281.994 177.571 281.914 177.651 281.914L179.651 279.024C180.298 279.413 180.838 279.957 181.223 280.606C181.609 281.255 181.828 281.989 181.861 282.744C181.861 283.074 181.781 283.334 181.781 283.674C181.577 284.628 181.171 285.528 180.591 286.314L180.161 286.394C178.712 285.366 177.707 283.825 177.351 282.084H177.391Z" fill="#422637"/>
<path d="M192.151 303.394C192.151 305.254 193.421 306.034 195.301 306.034C200.301 306.034 208.601 300.834 211.241 298.194L212.091 299.194C209.301 302.014 199.901 308.014 193.851 308.014C193.213 308.055 192.574 307.963 191.973 307.745C191.372 307.526 190.824 307.185 190.361 306.744C189.899 306.302 189.532 305.772 189.281 305.184C189.034 304.591 188.908 303.955 188.911 303.314C188.911 298.674 194.201 292.244 197.911 292.244C198.193 292.202 198.481 292.226 198.751 292.314C199.025 292.397 199.276 292.544 199.481 292.744C199.684 292.945 199.84 293.187 199.941 293.454C200.04 293.722 200.075 294.01 200.041 294.294C199.999 294.728 199.912 295.157 199.781 295.574C199.531 296.334 197.921 296.844 197.311 296.844C197.141 296.844 197.051 296.844 197.051 296.764C197.051 296.424 197.231 296.164 197.231 295.904C197.231 295.484 197.141 295.224 196.891 295.224C195.901 295.204 192.151 299.634 192.151 303.394Z" fill="#422637"/>
<path d="M229.561 304.834C229.561 306.204 229.981 307.224 230.661 307.224C234.661 307.224 244.551 300.574 246.931 298.224L247.791 299.224C246.341 300.664 234.331 310.224 228.451 310.224C226.451 310.224 225.121 309.124 225.121 306.304C225.181 304.829 225.44 303.369 225.891 301.964C225.981 301.534 226.231 300.964 226.401 300.344C226.63 299.9 226.83 299.442 227.001 298.974C227 298.932 226.982 298.892 226.951 298.864C226.918 298.832 226.876 298.811 226.831 298.804C220.431 302.214 217.831 305.114 211.661 306.134C210.823 306.1 210.029 305.747 209.443 305.146C208.857 304.545 208.524 303.743 208.511 302.904C208.511 299.064 216.261 291.654 224.101 291.654C226.571 291.654 228.531 292.504 229.301 294.444C230.581 294.704 231.091 295.804 231.091 297.224C231.061 300.014 229.561 302.104 229.561 304.834ZM223.621 294.224C217.241 294.224 210.761 302.144 210.761 303.424C210.761 304.194 211.761 304.274 212.381 304.274C218.091 303.274 219.961 299.934 225.241 296.004L226.531 295.244C226.134 294.897 225.677 294.625 225.181 294.444C224.68 294.271 224.151 294.196 223.621 294.224Z" fill="#422637"/>
<path d="M257.591 269.304C257.034 268.257 256.63 267.135 256.391 265.974C256.401 265.545 256.462 265.118 256.571 264.704C257.308 264.031 258.104 263.429 258.951 262.904C260.045 262.67 261.165 262.586 262.281 262.654C267.094 262.736 271.89 263.221 276.621 264.104C280.461 264.784 281.391 264.874 285.151 265.724C286.473 265.953 287.778 266.264 289.061 266.654C293.241 268.654 291.111 267.844 295.281 269.034L295.201 269.124L292.561 268.784C292.373 268.855 292.172 268.882 291.971 268.864C289.397 268.736 286.832 268.452 284.291 268.014C277.401 266.904 270.351 265.224 262.741 265.224C262.231 265.224 261.541 265.304 261.031 265.304C260.282 265.487 259.544 265.714 258.821 265.984C259.023 266.822 259.277 267.647 259.581 268.454C261.558 273.539 262.902 278.849 263.581 284.264C264.681 280.174 265.791 276.164 266.811 272.174C267.321 270.394 267.741 267.914 268.611 266.304L270.821 266.554C270.758 267.047 270.644 267.533 270.481 268.004C268.771 274.514 266.911 280.954 265.111 287.434C266.448 287.094 267.822 286.923 269.201 286.924C270.119 286.876 271.038 286.96 271.931 287.174C272.431 287.464 272.931 287.774 273.381 288.104L273.291 288.364C270.741 289.364 267.291 289.554 264.351 290.224C264.261 290.654 264.091 291.084 264.001 291.504C263.886 297.053 262.998 302.559 261.361 307.864C261.101 308.544 261.191 309.484 260.591 309.864C259.946 310.356 259.185 310.676 258.381 310.794C257.701 310.794 257.521 310.194 257.521 309.504C257.563 308.736 257.65 307.971 257.781 307.214C259.061 301.754 260.431 296.214 261.881 290.674H261.621L260.001 289.824C260.257 289.399 260.597 289.031 261.001 288.744C261.394 288.448 261.843 288.237 262.321 288.124C261.942 281.609 260.338 275.224 257.591 269.304Z" fill="#422637"/>
<path d="M281.001 303.134C281.001 305.134 282.621 306.034 284.581 306.034C289.581 306.034 297.871 300.834 300.511 298.194L301.361 299.194C298.591 302.014 289.201 308.014 283.151 308.014C280.591 308.014 277.691 306.734 277.691 303.834C277.691 298.834 281.691 293.354 285.621 292.414C285.923 292.318 286.235 292.26 286.551 292.244C286.842 292.212 287.136 292.246 287.411 292.344C287.683 292.436 287.929 292.59 288.131 292.794C288.341 292.996 288.499 293.247 288.591 293.524C288.69 293.795 288.724 294.086 288.691 294.374C288.669 294.778 288.612 295.179 288.521 295.574C288.071 297.086 287.149 298.414 285.889 299.364C284.63 300.314 283.099 300.836 281.521 300.854C281.221 301.579 281.046 302.35 281.001 303.134ZM285.901 295.804C285.901 295.374 285.731 295.204 285.471 295.204C284.791 295.204 283.261 296.914 282.151 299.124C284.171 299.014 285.921 298.194 285.921 295.804H285.901Z" fill="#422637"/>
<path d="M307.861 304.924C307.861 306.714 308.461 307.484 309.391 307.484C313.111 307.484 321.321 299.894 323.031 298.184L323.881 299.184C320.001 303.124 312.001 310.714 307.441 310.714C305.301 310.714 304.191 309.254 304.191 306.994C304.191 301.994 308.281 298.994 308.281 293.354C308.281 291.354 307.011 288.924 306.281 288.924C306.031 288.924 305.861 289.344 305.861 290.194C305.861 294.024 303.731 296.844 301.341 299.194H301.001L300.571 298.194C301.493 297.294 302.224 296.219 302.722 295.033C303.22 293.846 303.475 292.571 303.471 291.284C303.492 289.438 302.894 287.639 301.771 286.174C301.851 285.174 304.151 284.174 304.151 284.174C309.771 285.174 311.471 288.524 311.471 292.544C311.431 297.504 307.861 300.654 307.861 304.924Z" fill="#422637"/>
<path d="M330.361 304.924C330.361 306.714 330.951 307.484 331.891 307.484C335.611 307.484 343.821 299.894 345.521 298.184L346.381 299.184C342.451 303.104 334.531 310.694 329.931 310.694C327.801 310.694 326.691 309.234 326.691 306.974C326.691 301.974 330.781 298.974 330.781 293.334C330.781 291.334 329.501 288.904 328.781 288.904C328.521 288.904 328.351 289.324 328.351 290.174C328.351 294.004 326.231 296.824 323.841 299.174H323.411L322.991 298.174C323.912 297.274 324.643 296.2 325.141 295.014C325.64 293.827 325.892 292.551 325.881 291.264C325.902 289.418 325.304 287.619 324.181 286.154C324.261 285.154 326.561 284.154 326.561 284.154C332.191 285.154 333.901 288.504 333.901 292.524C333.941 297.504 330.361 300.654 330.361 304.924Z" fill="#422637"/>
<path d="M346.281 303.134C346.281 305.134 347.901 306.034 349.861 306.034C354.861 306.034 363.161 300.834 365.801 298.194L366.651 299.194C363.861 302.014 354.471 308.014 348.411 308.014C345.861 308.014 342.971 306.734 342.971 303.834C342.971 298.834 346.971 293.354 350.891 292.414C351.193 292.317 351.505 292.26 351.821 292.244C352.109 292.212 352.399 292.246 352.671 292.344C352.943 292.436 353.189 292.59 353.391 292.794C353.598 292.999 353.755 293.249 353.851 293.524C353.95 293.795 353.984 294.086 353.951 294.374C353.929 294.778 353.872 295.179 353.781 295.574C353.331 297.086 352.409 298.414 351.149 299.364C349.89 300.314 348.359 300.836 346.781 300.854C346.488 301.58 346.319 302.351 346.281 303.134ZM351.281 295.804C351.281 295.374 351.101 295.204 350.851 295.204C350.171 295.204 348.641 296.914 347.521 299.124C349.441 299.014 351.231 298.194 351.231 295.804H351.281Z" fill="#422637"/>
<path d="M366.051 296.664C366.651 295.124 367.421 294.434 368.101 294.434C369.031 294.434 369.721 295.554 369.721 297.174C369.723 297.897 369.609 298.616 369.381 299.304C368.785 300.683 368.407 302.147 368.261 303.644C368.261 304.924 368.871 305.644 369.891 305.644C373.131 305.644 379.001 300.644 381.391 298.204L382.241 299.204C379.781 301.684 372.391 308.204 366.811 308.204C365.531 308.204 364.591 307.524 364.591 305.204C364.623 303.53 364.882 301.868 365.361 300.264C365.47 299.043 365.701 297.837 366.051 296.664ZM367.241 282.084C367.241 281.994 367.421 281.914 367.501 281.914L369.551 279.024C370.195 279.415 370.734 279.957 371.121 280.604C371.512 281.252 371.732 281.988 371.761 282.744C371.761 283.074 371.681 283.334 371.681 283.674C371.477 284.628 371.071 285.528 370.491 286.314L370.061 286.394C368.608 285.367 367.599 283.826 367.241 282.084Z" fill="#422637"/>
<path d="M388.721 304.924C388.721 306.714 389.321 307.484 390.261 307.484C393.971 307.484 402.181 299.894 403.891 298.184L404.741 299.184C400.821 303.104 392.901 310.694 388.291 310.694C386.161 310.694 385.061 309.234 385.061 306.974C385.061 301.974 389.151 298.974 389.151 293.334C389.151 291.334 387.871 288.904 387.151 288.904C386.891 288.904 386.721 289.324 386.721 290.174C386.721 294.004 384.591 296.824 382.201 299.174H381.781L381.351 298.174C382.275 297.277 383.006 296.202 383.501 295.014C383.999 293.826 384.254 292.551 384.251 291.264C384.273 289.416 383.671 287.616 382.541 286.154C382.631 285.154 384.931 284.154 384.931 284.154C390.511 285.154 392.261 288.504 392.261 292.524C392.301 297.504 388.721 300.654 388.721 304.924Z" fill="#422637"/>
<path d="M422.201 304.834C422.201 306.204 422.631 307.224 423.311 307.224C427.311 307.224 441.911 302.224 442.841 301.644L443.381 302.644C441.721 303.644 426.981 310.194 421.071 310.194C419.071 310.194 417.751 309.084 417.751 306.274C417.808 304.799 418.063 303.339 418.511 301.934C418.601 301.504 418.861 300.934 419.021 300.314C419.25 299.87 419.45 299.412 419.621 298.944C419.618 298.899 419.6 298.857 419.571 298.824C419.532 298.814 419.491 298.814 419.451 298.824C413.061 302.234 410.451 305.134 404.291 306.154C403.447 306.118 402.649 305.76 402.061 305.154C401.481 304.546 401.149 303.743 401.131 302.904C401.131 299.064 408.891 291.654 416.731 291.654C419.201 291.654 421.151 292.514 421.921 294.444C423.201 294.704 423.711 295.814 423.711 297.234C423.741 300.014 422.201 302.104 422.201 304.834ZM416.201 294.224C409.811 294.224 403.331 302.144 403.331 303.424C403.331 304.194 404.331 304.274 404.951 304.274C410.661 303.274 412.541 299.934 417.821 296.004L419.091 295.244C418.299 294.541 417.259 294.181 416.201 294.244V294.224Z" fill="#422637"/>
<path d="M131.001 287.834L132.761 286.124Z" fill="#422637"/>
<path d="M131.001 287.834L132.761 286.124M460.551 407.494C455.331 413.014 449.845 418.267 444.091 423.254C438.351 428.254 432.321 432.904 426.151 437.354C423.071 439.604 419.901 441.714 416.741 443.854C413.581 445.994 410.341 447.984 407.061 449.924C400.528 453.864 393.861 457.567 387.061 461.034C359.766 474.905 330.709 484.998 300.691 491.034C293.161 492.514 285.591 493.744 277.951 494.654C270.311 495.564 262.621 496.064 254.951 496.264C192.367 497.832 131.491 475.754 84.4614 434.434C49.2148 403.597 23.5794 363.274 10.6114 318.274C-6.57858 258.694 -0.538584 193.014 27.3514 137.884C55.2737 82.1808 103.098 38.9963 161.351 16.8835C175.723 11.4611 190.571 7.39667 205.701 4.74354C220.825 2.1027 236.16 0.854137 251.511 1.01354C282.205 1.20545 312.634 6.69263 341.461 17.2335C370.272 27.8332 396.715 44.0006 419.281 64.8135C430.502 75.2168 440.594 86.774 449.391 99.2935C458.159 111.798 465.559 125.208 471.461 139.294C477.356 153.364 481.744 168.019 484.551 183.014C487.351 198.003 488.631 213.237 488.371 228.484C488.161 232.324 487.721 236.114 487.141 239.884C486.561 243.654 485.831 247.394 484.921 251.104C483.061 258.504 480.641 265.864 476.741 272.494C473.021 279.104 468.531 285.494 462.741 290.544C456.951 295.594 450.041 299.064 443.391 302.624L442.841 301.624C449.461 298.014 456.211 294.494 461.741 289.474C467.183 284.328 471.719 278.304 475.161 271.654C478.681 265.038 481.278 257.973 482.881 250.654C483.731 246.994 484.401 243.304 484.881 239.584C485.429 235.888 485.779 232.166 485.931 228.434C486.14 198.286 480.103 168.423 468.201 140.724C462.23 126.95 454.801 113.855 446.041 101.664C437.274 89.5091 427.252 78.3108 416.141 68.2535C393.829 48.1959 367.788 32.7253 339.501 22.7235C311.25 12.6944 281.48 7.61981 251.501 7.72354C236.57 7.69398 221.668 9.03291 206.981 11.7235C166.627 19.1205 128.863 36.8041 97.3416 63.0645C65.8202 89.325 41.6072 123.274 27.0438 161.629C12.4804 199.984 8.05911 241.448 14.2075 282.012C20.3559 322.576 36.866 360.867 62.1414 393.184C98.8611 440.398 151.742 472.367 210.611 482.944C225.207 485.634 240.02 486.973 254.861 486.944C262.301 486.944 269.731 486.524 277.111 485.874C284.491 485.224 291.921 484.204 299.281 482.974C314.028 480.433 328.588 476.905 342.861 472.414C350.021 470.214 357.091 467.704 364.091 464.974C371.091 462.244 378.091 459.344 384.811 456.194C391.531 453.044 398.341 449.684 404.931 446.054C408.241 444.274 411.441 442.334 414.711 440.474C417.981 438.614 421.131 436.564 424.271 434.474C430.561 430.364 436.731 426.044 442.641 421.374C448.551 416.704 454.321 411.844 459.791 406.634L460.551 407.494ZM145.371 371.324V370.824C145.811 370.827 146.249 370.79 146.681 370.714C146.971 370.671 147.238 370.534 147.441 370.324C147.637 370.106 147.759 369.834 147.791 369.544C147.862 369.121 147.892 368.692 147.881 368.264V356.524L141.071 371.304H140.661L133.871 356.524V368.244C133.863 368.678 133.889 369.113 133.951 369.544C133.99 369.832 134.112 370.103 134.301 370.324C134.497 370.533 134.758 370.67 135.041 370.714C135.478 370.783 135.92 370.813 136.361 370.804V371.304H130.271V370.804C130.71 370.81 131.149 370.777 131.581 370.704C131.862 370.652 132.12 370.516 132.321 370.314C132.514 370.093 132.629 369.816 132.651 369.524C132.712 369.1 132.742 368.672 132.741 368.244V356.784C132.742 356.381 132.702 355.979 132.621 355.584C132.564 355.29 132.429 355.017 132.231 354.794C132.031 354.58 131.774 354.428 131.491 354.354C131.093 354.252 130.683 354.205 130.271 354.214V353.734H135.271L141.651 367.474L147.921 353.734H152.921V354.194C152.476 354.192 152.031 354.225 151.591 354.294C151.305 354.345 151.04 354.481 150.831 354.684C150.649 354.91 150.535 355.184 150.501 355.474C150.44 355.901 150.413 356.332 150.421 356.764V368.244C150.416 368.679 150.446 369.113 150.511 369.544C150.542 369.832 150.66 370.105 150.851 370.324C151.05 370.535 151.314 370.673 151.601 370.714C152.038 370.784 152.48 370.814 152.921 370.804V371.304L145.371 371.324ZM172.231 369.604C172.081 369.814 171.891 370.054 171.691 370.284C171.491 370.514 171.27 370.724 171.031 370.914C170.804 371.106 170.548 371.261 170.271 371.374C170.005 371.499 169.715 371.563 169.421 371.564C169.193 371.574 168.966 371.515 168.771 371.394C168.59 371.286 168.441 371.13 168.341 370.944C168.234 370.747 168.16 370.534 168.121 370.314C168.09 370.082 168.073 369.848 168.071 369.614L167.201 370.304C166.905 370.53 166.594 370.737 166.271 370.924C165.98 371.112 165.668 371.267 165.341 371.384C164.614 371.663 163.809 371.663 163.081 371.384C162.727 371.239 162.409 371.017 162.151 370.734C161.907 370.464 161.719 370.148 161.601 369.804C161.474 369.413 161.409 369.004 161.411 368.594C161.408 368.128 161.525 367.67 161.751 367.264C161.984 366.852 162.281 366.481 162.631 366.164C163.015 365.812 163.434 365.5 163.881 365.234C164.347 364.966 164.828 364.725 165.321 364.514C165.821 364.304 166.321 364.114 166.781 363.954L168.031 363.524V363.014C168.03 362.622 168.003 362.231 167.951 361.844C167.912 361.492 167.803 361.153 167.631 360.844C167.482 360.549 167.249 360.306 166.961 360.144C166.609 359.953 166.211 359.863 165.811 359.884C165.493 359.874 165.176 359.932 164.881 360.054C164.663 360.15 164.478 360.31 164.351 360.514C164.226 360.732 164.148 360.973 164.121 361.224C164.085 361.515 164.068 361.809 164.071 362.104C164.092 362.43 164.012 362.755 163.841 363.034C163.733 363.156 163.596 363.251 163.443 363.308C163.289 363.366 163.124 363.385 162.961 363.364C162.805 363.38 162.646 363.355 162.501 363.294C162.355 363.236 162.226 363.139 162.131 363.014C161.948 362.74 161.863 362.412 161.891 362.084C161.873 361.593 162.021 361.11 162.311 360.714C162.602 360.334 162.966 360.018 163.381 359.784C163.82 359.536 164.297 359.36 164.791 359.264C165.26 359.152 165.74 359.095 166.221 359.094C166.848 359.084 167.473 359.154 168.081 359.304C168.545 359.426 168.966 359.671 169.301 360.014C169.631 360.368 169.862 360.802 169.971 361.274C170.113 361.883 170.18 362.508 170.171 363.134V368.214C170.166 368.548 170.19 368.883 170.241 369.214C170.281 369.366 170.338 369.514 170.411 369.654C170.453 369.721 170.511 369.776 170.581 369.814C170.657 369.829 170.735 369.829 170.811 369.814C170.938 369.802 171.058 369.757 171.161 369.684L171.571 369.384L171.951 369.024L172.221 368.764L172.231 369.604ZM168.041 364.204L166.681 364.754C166.172 364.964 165.683 365.222 165.221 365.524C164.788 365.794 164.4 366.132 164.071 366.524C163.758 366.907 163.591 367.389 163.601 367.884C163.605 368.142 163.649 368.399 163.731 368.644C163.803 368.897 163.922 369.134 164.081 369.344C164.243 369.544 164.44 369.713 164.661 369.844C164.907 369.966 165.177 370.031 165.451 370.034C165.684 370.03 165.914 369.986 166.131 369.904C166.372 369.825 166.603 369.721 166.821 369.594C167.046 369.462 167.263 369.318 167.471 369.164L168.041 368.714V364.204ZM187.001 371.324V370.824H187.261L187.531 370.764C187.611 370.732 187.682 370.685 187.741 370.624C187.795 370.555 187.823 370.47 187.821 370.384C187.82 370.188 187.761 369.996 187.651 369.834C187.541 369.654 187.431 369.504 187.331 369.354L183.701 364.774V369.654C183.713 369.893 183.789 370.124 183.921 370.324C184.062 370.51 184.264 370.641 184.491 370.694C184.847 370.767 185.209 370.8 185.571 370.794V371.294H179.471V370.794C179.823 370.802 180.175 370.775 180.521 370.714C180.745 370.666 180.95 370.555 181.111 370.394C181.264 370.208 181.358 369.982 181.381 369.744C181.426 369.392 181.446 369.038 181.441 368.684V356.504C181.441 356.27 181.441 356.04 181.441 355.814C181.426 355.598 181.379 355.386 181.301 355.184C181.243 355.014 181.152 354.857 181.031 354.724C180.971 354.671 180.904 354.627 180.831 354.594C180.749 354.578 180.664 354.578 180.581 354.594C180.438 354.592 180.296 354.616 180.161 354.664L179.741 354.804L179.491 354.354L183.081 352.954H183.661V364.534L186.661 361.994L186.971 361.724C187.101 361.604 187.241 361.484 187.381 361.344C187.513 361.211 187.636 361.07 187.751 360.924C187.834 360.816 187.886 360.688 187.901 360.554C187.911 360.444 187.883 360.335 187.821 360.244C187.761 360.154 187.679 360.081 187.581 360.034C187.39 359.944 187.183 359.893 186.971 359.884V359.494H192.111V359.884C191.776 359.887 191.441 359.92 191.111 359.984C190.828 360.035 190.553 360.123 190.291 360.244C190.034 360.355 189.792 360.5 189.571 360.674C189.301 360.86 189.044 361.063 188.801 361.284L185.651 364.014L188.781 367.914L189.401 368.714C189.601 368.974 189.821 369.224 190.041 369.464C190.477 369.954 190.991 370.369 191.561 370.694C191.737 370.774 191.929 370.812 192.121 370.804H192.681V371.304L187.001 371.324ZM210.611 367.014C210.447 368.247 209.894 369.396 209.031 370.294C208.606 370.726 208.108 371.081 207.561 371.344C206.991 371.607 206.37 371.74 205.741 371.734C204.959 371.749 204.185 371.566 203.491 371.204C202.859 370.855 202.31 370.374 201.881 369.794C201.431 369.192 201.093 368.515 200.881 367.794C200.672 367.055 200.561 366.291 200.551 365.524C200.549 364.692 200.664 363.864 200.891 363.064C201.101 362.342 201.44 361.664 201.891 361.064C202.357 360.475 202.943 359.994 203.611 359.654C204.373 359.293 205.209 359.115 206.051 359.134C206.706 359.123 207.356 359.246 207.961 359.494C208.502 359.724 208.989 360.064 209.391 360.494C209.8 360.937 210.116 361.457 210.321 362.024C210.524 362.67 210.615 363.346 210.591 364.024H202.391C202.389 364.682 202.476 365.338 202.651 365.974C202.803 366.635 203.071 367.265 203.441 367.834C203.794 368.366 204.249 368.821 204.781 369.174C205.368 369.523 206.039 369.703 206.721 369.694C207.142 369.701 207.56 369.626 207.951 369.474C208.296 369.333 208.611 369.129 208.881 368.874C209.168 368.6 209.414 368.287 209.611 367.944C209.831 367.587 210.012 367.208 210.151 366.814L210.611 367.014ZM207.891 363.204C207.891 362.809 207.841 362.416 207.741 362.034C207.655 361.673 207.498 361.334 207.281 361.034C207.065 360.743 206.793 360.499 206.481 360.314C206.126 360.13 205.731 360.038 205.331 360.044C204.919 360.043 204.513 360.135 204.141 360.314C203.791 360.487 203.475 360.725 203.211 361.014C202.967 361.313 202.774 361.651 202.641 362.014C202.492 362.391 202.401 362.789 202.371 363.194L207.891 363.204ZM228.171 371.714H227.581V369.174C227.311 369.454 227.031 369.754 226.731 370.054C226.44 370.345 226.13 370.615 225.801 370.864C225.471 371.105 225.116 371.31 224.741 371.474C224.368 371.632 223.967 371.714 223.561 371.714C223.009 371.743 222.461 371.592 222.001 371.284C221.602 371.003 221.281 370.624 221.071 370.184C220.842 369.714 220.69 369.211 220.621 368.694C220.55 368.163 220.513 367.629 220.511 367.094V361.784C220.513 361.471 220.48 361.159 220.411 360.854C220.353 360.636 220.231 360.442 220.061 360.294C219.877 360.153 219.66 360.061 219.431 360.024C219.124 359.974 218.813 359.954 218.501 359.964V359.474H222.691V367.394C222.693 367.728 222.72 368.063 222.771 368.394C222.82 368.693 222.922 368.98 223.071 369.244C223.208 369.5 223.412 369.714 223.661 369.864C223.969 370.026 224.314 370.105 224.661 370.094C224.949 370.096 225.235 370.041 225.501 369.934C225.782 369.837 226.047 369.702 226.291 369.534C226.546 369.385 226.783 369.211 227.001 369.014C227.221 368.824 227.431 368.614 227.611 368.424V361.714C227.622 361.399 227.582 361.085 227.491 360.784C227.439 360.58 227.323 360.398 227.161 360.264C226.983 360.126 226.774 360.033 226.551 359.994C226.264 359.949 225.973 359.929 225.681 359.934V359.454H229.761V368.684C229.771 368.883 229.801 369.081 229.851 369.274C229.898 369.453 229.983 369.62 230.101 369.764C230.153 369.833 230.221 369.888 230.3 369.923C230.379 369.958 230.466 369.972 230.551 369.964C230.914 369.961 231.273 369.894 231.611 369.764L231.791 370.224L228.171 371.714ZM251.171 364.944C251.164 365.762 251.049 366.575 250.831 367.364C250.621 368.134 250.283 368.864 249.831 369.524C249.376 370.162 248.794 370.699 248.121 371.104C247.399 371.521 246.576 371.732 245.741 371.714C245.226 371.715 244.714 371.624 244.231 371.444C243.748 371.254 243.307 370.972 242.931 370.614V374.244C242.907 374.606 242.907 374.971 242.931 375.334C242.951 375.58 243.041 375.817 243.191 376.014C243.341 376.201 243.549 376.335 243.781 376.394C244.141 376.485 244.51 376.532 244.881 376.534V377.034H238.621V376.534C239.002 376.53 239.38 376.487 239.751 376.404C239.991 376.347 240.205 376.214 240.361 376.024C240.504 375.82 240.59 375.582 240.611 375.334C240.651 374.948 240.671 374.561 240.671 374.174V362.294C240.675 362.064 240.648 361.836 240.591 361.614C240.553 361.415 240.459 361.231 240.321 361.084C240.241 361.003 240.141 360.944 240.031 360.914C239.919 360.889 239.803 360.889 239.691 360.914C239.389 360.905 239.09 360.974 238.821 361.114L238.681 360.654L242.401 359.174H242.891V361.964C243.101 361.617 243.332 361.283 243.581 360.964C243.822 360.617 244.108 360.304 244.431 360.034C244.731 359.771 245.068 359.555 245.431 359.394C245.82 359.227 246.239 359.142 246.661 359.144C247.365 359.137 248.057 359.324 248.661 359.684C249.219 360.042 249.693 360.516 250.051 361.074C250.413 361.648 250.683 362.276 250.851 362.934C251.042 363.587 251.149 364.263 251.171 364.944ZM249.091 366.184C249.092 365.584 249.041 364.985 248.941 364.394C248.854 363.782 248.679 363.186 248.421 362.624C248.194 362.096 247.852 361.624 247.421 361.244C246.933 360.866 246.328 360.671 245.711 360.694C245.428 360.693 245.149 360.766 244.901 360.904C244.632 361.043 244.38 361.214 244.151 361.414C243.92 361.612 243.703 361.825 243.501 362.054L242.941 362.694V367.134C242.943 367.605 242.97 368.075 243.021 368.544C243.073 368.967 243.202 369.377 243.401 369.754C243.602 370.101 243.892 370.387 244.241 370.584C244.698 370.806 245.203 370.913 245.711 370.894C246.284 370.915 246.849 370.762 247.331 370.454C247.747 370.159 248.09 369.772 248.331 369.324C248.605 368.851 248.801 368.338 248.911 367.804C249.031 367.272 249.091 366.729 249.091 366.184ZM286.061 371.324V370.824H286.661C286.856 370.796 287.045 370.739 287.221 370.654C287.391 370.578 287.539 370.461 287.651 370.314C287.78 370.152 287.844 369.949 287.831 369.744C287.807 369.425 287.736 369.112 287.621 368.814C287.481 368.404 287.331 367.974 287.161 367.544C286.991 367.114 286.811 366.704 286.651 366.324L286.281 365.514H279.471C279.422 365.674 279.348 365.826 279.251 365.964C279.151 366.174 279.051 366.424 278.921 366.694C278.791 366.964 278.671 367.254 278.551 367.544C278.431 367.834 278.301 368.134 278.191 368.424C278.081 368.714 278.001 368.944 277.921 369.214C277.867 369.399 277.834 369.59 277.821 369.784C277.818 369.886 277.835 369.988 277.871 370.084C277.91 370.18 277.972 370.266 278.051 370.334C278.201 370.489 278.387 370.605 278.591 370.674C278.808 370.755 279.033 370.812 279.261 370.844L279.871 370.894V371.394H274.291V370.894C274.667 370.892 275.036 370.792 275.361 370.604C275.662 370.42 275.926 370.182 276.141 369.904C276.368 369.616 276.563 369.304 276.721 368.974C276.881 368.624 277.031 368.274 277.181 367.974L283.391 353.514H283.841L289.941 368.084C290.111 368.484 290.271 368.844 290.431 369.184C290.571 369.52 290.76 369.833 290.991 370.114C291.206 370.376 291.475 370.588 291.781 370.734C292.164 370.912 292.58 371.007 293.001 371.014V371.514L286.061 371.324ZM282.931 357.374L279.871 364.524H285.921L282.931 357.374ZM309.301 360.534C309.293 360.852 309.165 361.156 308.941 361.384C308.839 361.504 308.709 361.597 308.561 361.654C308.419 361.713 308.266 361.744 308.111 361.744C307.921 361.746 307.733 361.694 307.571 361.594C307.402 361.503 307.239 361.403 307.081 361.294L306.661 360.984C306.552 360.891 306.415 360.838 306.271 360.834C306.069 360.845 305.879 360.935 305.741 361.084C305.559 361.266 305.392 361.464 305.241 361.674C305.089 361.885 304.948 362.106 304.821 362.334L304.551 362.824V368.604C304.511 369.201 304.662 369.797 304.981 370.304C305.199 370.512 305.458 370.672 305.741 370.774C306.029 370.865 306.332 370.892 306.631 370.854V371.364H300.491V370.854C300.828 370.862 301.164 370.829 301.491 370.754C301.714 370.701 301.911 370.574 302.051 370.394C302.191 370.193 302.271 369.957 302.281 369.714C302.281 369.434 302.331 369.094 302.331 368.714V363.324C302.339 363.033 302.322 362.742 302.281 362.454C302.269 362.171 302.233 361.89 302.171 361.614C302.166 361.402 302.107 361.196 302.001 361.014C301.793 360.913 301.563 360.865 301.331 360.874C301.053 360.875 300.777 360.933 300.521 361.044L300.381 360.574L304.041 359.134H304.541V361.824C304.702 361.503 304.882 361.192 305.081 360.894C305.286 360.584 305.517 360.293 305.771 360.024C306.019 359.762 306.302 359.537 306.611 359.354C306.916 359.179 307.26 359.086 307.611 359.084C307.818 359.092 308.023 359.126 308.221 359.184C308.617 359.298 308.951 359.564 309.151 359.924C309.245 360.114 309.296 360.322 309.301 360.534ZM323.761 369.134C323.662 369.459 323.524 369.771 323.351 370.064C323.177 370.37 322.954 370.647 322.691 370.884C322.437 371.124 322.147 371.323 321.831 371.474C321.518 371.618 321.177 371.693 320.831 371.694C320.431 371.714 320.034 371.624 319.681 371.434C319.383 371.261 319.132 371.017 318.951 370.724C318.762 370.418 318.637 370.078 318.581 369.724C318.513 369.354 318.48 368.979 318.481 368.604V360.334H316.601V359.944C317.052 359.766 317.468 359.513 317.831 359.194C318.202 358.87 318.537 358.508 318.831 358.114C319.132 357.705 319.399 357.274 319.631 356.824C319.871 356.384 320.071 355.954 320.251 355.534H320.641V359.454H323.431V360.334H320.641V368.264C320.627 368.473 320.627 368.684 320.641 368.894C320.661 369.113 320.711 369.328 320.791 369.534C320.869 369.73 320.992 369.905 321.151 370.044C321.32 370.174 321.529 370.241 321.741 370.234C322.078 370.253 322.41 370.146 322.671 369.934C322.914 369.713 323.102 369.439 323.221 369.134H323.761ZM331.791 371.324V370.824C332.104 370.828 332.416 370.798 332.721 370.734C332.953 370.718 333.172 370.623 333.341 370.464C333.482 370.295 333.572 370.091 333.601 369.874C333.65 369.566 333.673 369.255 333.671 368.944V362.074C333.651 361.881 333.614 361.69 333.561 361.504C333.512 361.327 333.415 361.168 333.281 361.044C333.216 360.976 333.138 360.922 333.051 360.884C332.962 360.868 332.871 360.868 332.781 360.884C332.629 360.884 332.478 360.904 332.331 360.944L331.851 361.084L331.681 360.624L335.271 359.184H335.841V368.984C335.84 369.295 335.863 369.606 335.911 369.914C335.945 370.132 336.038 370.336 336.181 370.504C336.326 370.664 336.519 370.772 336.731 370.814C337.037 370.876 337.349 370.903 337.661 370.894V371.404L331.791 371.324ZM336.001 355.404C336.001 355.574 335.971 355.744 335.911 355.904C335.846 356.063 335.751 356.209 335.631 356.334C335.514 356.462 335.371 356.564 335.211 356.634C335.05 356.701 334.876 356.735 334.701 356.734C334.354 356.731 334.021 356.595 333.771 356.354C333.647 356.233 333.549 356.088 333.484 355.928C333.418 355.768 333.387 355.596 333.391 355.424C333.382 355.249 333.412 355.074 333.481 354.914C333.544 354.753 333.643 354.609 333.771 354.494C333.893 354.371 334.04 354.276 334.201 354.214C334.441 354.113 334.706 354.087 334.961 354.139C335.216 354.191 335.449 354.318 335.631 354.504C335.756 354.616 335.852 354.757 335.911 354.914C335.971 355.07 336.002 355.236 336.001 355.404ZM354.641 368.324C354.649 368.814 354.525 369.298 354.281 369.724C354.041 370.132 353.725 370.492 353.351 370.784C352.576 371.378 351.628 371.705 350.651 371.714C350.363 371.716 350.076 371.672 349.801 371.584C349.501 371.504 349.221 371.404 348.941 371.304L348.161 371.014C347.943 370.934 347.713 370.894 347.481 370.894H347.401C347.401 370.894 347.401 370.894 347.331 370.954C347.261 371.014 347.241 371.064 347.201 371.114C347.161 371.181 347.124 371.252 347.091 371.324L347.021 371.474H346.571V367.244H347.001C347.088 367.71 347.233 368.163 347.431 368.594C347.616 369.022 347.869 369.417 348.181 369.764C348.478 370.098 348.838 370.371 349.241 370.564C349.673 370.777 350.15 370.883 350.631 370.874C350.892 370.872 351.151 370.835 351.401 370.764C351.637 370.691 351.858 370.576 352.051 370.424C352.238 370.274 352.392 370.087 352.501 369.874C352.621 369.638 352.679 369.377 352.671 369.114C352.692 368.614 352.532 368.125 352.221 367.734C351.9 367.339 351.514 367.001 351.081 366.734C350.602 366.438 350.108 366.168 349.601 365.924C349.088 365.665 348.594 365.371 348.121 365.044C347.677 364.73 347.291 364.341 346.981 363.894C346.66 363.405 346.502 362.827 346.531 362.244C346.512 361.754 346.622 361.267 346.851 360.834C347.068 360.446 347.361 360.106 347.711 359.834C348.085 359.571 348.501 359.375 348.941 359.254C349.408 359.13 349.889 359.066 350.371 359.064C350.593 359.07 350.814 359.097 351.031 359.144C351.255 359.183 351.475 359.236 351.691 359.304L352.331 359.464C352.545 359.512 352.763 359.536 352.981 359.534C353.105 359.529 353.222 359.479 353.311 359.394C353.399 359.294 353.473 359.183 353.531 359.064H354.001V363.134H353.541C353.443 362.711 353.313 362.296 353.151 361.894C352.992 361.515 352.78 361.162 352.521 360.844C352.268 360.53 351.951 360.275 351.591 360.094C351.201 359.896 350.768 359.8 350.331 359.814C350.07 359.814 349.809 359.834 349.551 359.874C349.293 359.923 349.041 360.004 348.801 360.114C348.581 360.229 348.392 360.398 348.251 360.604C348.102 360.847 348.029 361.129 348.041 361.414C348.022 361.922 348.197 362.419 348.531 362.804C348.883 363.18 349.295 363.494 349.751 363.734C350.264 364.015 350.792 364.269 351.331 364.494C351.879 364.732 352.408 365.012 352.911 365.334C353.392 365.638 353.807 366.036 354.131 366.504C354.498 367.037 354.677 367.677 354.641 368.324ZM370.001 369.134C369.902 369.459 369.764 369.771 369.591 370.064C369.414 370.369 369.191 370.645 368.931 370.884C368.677 371.124 368.387 371.323 368.071 371.474C367.758 371.618 367.417 371.693 367.071 371.694C366.672 371.714 366.274 371.624 365.921 371.434C365.625 371.262 365.377 371.018 365.201 370.724C365.009 370.419 364.88 370.079 364.821 369.724C364.75 369.338 364.713 368.946 364.711 368.554V360.334H362.851V359.944C363.302 359.766 363.718 359.513 364.081 359.194C364.454 358.872 364.79 358.51 365.081 358.114C365.382 357.703 365.652 357.272 365.891 356.824C366.121 356.384 366.331 355.954 366.501 355.534H366.901V359.454H369.691V360.334H366.901V368.264C366.881 368.473 366.881 368.684 366.901 368.894C366.924 369.113 366.978 369.329 367.061 369.534C367.135 369.732 367.259 369.908 367.421 370.044C367.59 370.174 367.799 370.241 368.011 370.234C368.348 370.253 368.68 370.146 368.941 369.934C369.191 369.717 369.384 369.442 369.501 369.134H370.001ZM86.0014 260.954H90.1314V154.534H90.4014L128.751 260.954H176.451L135.611 150.114H69.4314V153.694H86.0014V260.954ZM147.351 312.654L159.351 345.884H163.491L175.361 312.654H147.351ZM90.1114 312.654H86.0014V339.544H69.4314V343.124H106.651V339.544H90.1114V312.654ZM352.371 312.654H308.801V339.544H276.231V312.654H232.111V339.544H215.571V343.124H370.571V339.544H352.371V312.654ZM229.081 150.104L189.441 260.934H193.801L231.801 154.514H232.081V260.944H276.201V153.694H308.751V260.944H352.311V247.734H363.101C369.441 247.734 376.611 247.734 381.841 248.564C401.421 250.494 408.841 261.564 409.691 279.454H413.301V216.284H409.721C408.341 231.724 400.071 241.104 381.601 243.024C377.461 243.854 370.601 243.854 364.221 243.854H352.361V154.014H368.671C384.121 154.014 397.901 154.564 408.111 159.804C418.031 165.314 424.651 175.514 426.571 195.134H430.441V150.134L229.081 150.104ZM92.2114 293.494C91.7871 294.559 91.2718 295.586 90.6714 296.564C89.8838 297.536 89.0283 298.452 88.1114 299.304C87.2751 299.142 86.4689 298.852 85.7214 298.444C85.3814 298.194 85.3014 296.994 85.3014 295.974C85.3014 295.204 85.3814 294.534 85.3814 294.434C85.7214 288.984 86.6614 282.594 86.6614 277.144V276.464C83.8104 280.805 81.3027 285.362 79.1614 290.094C76.1614 296.484 73.3714 302.884 70.9914 309.514C70.6414 310.444 70.6414 311.654 69.9914 312.304C68.9914 313.234 67.8614 314.094 67.0914 314.094C66.5814 314.094 66.2414 313.754 66.2414 312.734C66.3148 311.988 66.4283 311.247 66.5814 310.514C69.0769 296.015 72.3482 281.661 76.3814 267.514C76.6488 266.203 77.2324 264.977 78.0814 263.944C78.7714 264.194 79.5314 264.444 80.2114 264.704C80.0319 265.817 79.7197 266.905 79.2814 267.944C75.2832 280.331 72.1818 292.991 70.0014 305.824C74.4314 296.124 77.6714 285.634 83.4714 276.684C84.4014 275.234 85.4714 272.684 87.3814 272.684C88.1659 272.723 88.915 273.022 89.5114 273.534C89.7888 273.879 89.993 274.277 90.1114 274.704C90.226 275.127 90.2565 275.568 90.2014 276.004V277.114C90.2014 283.684 88.6714 288.534 88.4914 294.584C92.6614 288.194 96.1614 280.864 99.5714 273.794C102.131 268.424 105.111 263.304 107.011 257.594C107.181 257.084 107.091 256.244 107.611 256.064C108.05 255.922 108.511 255.865 108.971 255.894C109.651 255.894 110.421 255.984 111.101 255.984H111.351C111.271 256.984 111.271 258.194 111.101 259.214C110.841 260.584 110.331 261.774 110.001 263.144C107.521 272.144 105.231 281.454 103.491 291.144C101.361 303.414 102.811 294.044 101.191 305.464C100.931 307.244 100.421 309.044 100.341 310.824C100.251 312.194 100.251 313.554 100.251 314.914H100.001C99.4147 311.947 99.0802 308.936 99.0014 305.914C99.1413 300.931 99.7101 295.969 100.701 291.084C102.241 282.714 104.121 273.784 105.821 265.424C100.891 274.584 96.8914 284.014 92.2114 293.494ZM118.871 310.544C115.871 310.544 114.351 307.994 114.351 304.544C114.481 301.047 115.64 297.666 117.681 294.824C118.101 294.234 118.531 293.714 118.961 293.204C119.811 292.354 121.261 290.564 122.671 290.564C122.761 290.564 122.941 290.654 123.021 290.654C123.809 290.067 124.76 289.742 125.741 289.724C128.381 289.724 130.181 292.514 130.181 295.724C130.127 297.304 129.837 298.868 129.321 300.364C131.047 301.254 132.96 301.721 134.901 301.724C138.029 301.486 140.993 300.232 143.341 298.154L144.191 299.154C140.956 301.942 136.878 303.562 132.611 303.754C131.079 303.754 129.556 303.525 128.091 303.074C126.121 307.134 122.701 310.544 118.871 310.544ZM121.351 297.424C119.891 299.894 117.851 303.934 117.851 306.034C117.851 307.654 118.361 308.244 119.121 308.244C121.601 308.244 124.701 306.244 126.631 302.534C125.453 302.089 124.377 301.409 123.471 300.534C122.562 299.651 121.84 298.593 121.351 297.424ZM128.081 296.494C128.081 294.794 126.961 293.174 125.951 293.174C125.341 293.174 124.831 293.684 124.831 294.954C124.831 296.494 125.951 298.204 127.731 299.474C127.939 298.486 128.056 297.482 128.081 296.474V296.494ZM155.931 294.944C156.166 294.931 156.4 294.965 156.621 295.044C158.841 295.884 159.091 297.934 159.091 299.894C159.091 301.174 158.751 302.784 158.751 303.984C158.751 304.984 159.001 305.684 159.861 305.684C163.861 305.684 173.571 300.574 175.961 298.194L176.821 299.194C174.341 301.664 162.411 308.824 157.041 308.824C155.181 308.824 154.661 307.974 154.661 306.344C154.661 304.994 154.991 303.024 154.991 300.634C154.991 300.384 154.911 299.534 154.831 298.934C151.001 300.984 148.691 302.654 146.651 305.244C146.561 305.324 144.521 307.884 144.261 308.144C143.581 308.734 142.811 309.074 142.141 309.594C141.361 309.164 140.001 309.084 140.001 307.884C140.018 307.335 140.105 306.79 140.261 306.264C141.531 300.474 142.261 295.444 142.901 290.454C143.151 290.454 143.491 290.364 143.751 290.364C146.051 290.364 146.911 292.504 146.911 294.454C146.752 296.581 146.291 298.676 145.541 300.674C145.291 301.674 144.861 302.724 144.541 303.744C146.841 301.694 149.481 300.164 151.611 297.864C152.611 296.914 154.321 294.944 155.931 294.944ZM176.201 296.664C176.801 295.124 177.571 294.434 178.251 294.434C179.181 294.434 179.871 295.554 179.871 297.174C179.875 297.898 179.757 298.618 179.521 299.304C178.931 300.684 178.56 302.148 178.421 303.644C178.421 304.924 179.011 305.644 180.031 305.644C183.281 305.644 189.161 300.644 191.551 298.204L192.391 299.204C189.941 301.684 182.521 308.204 176.991 308.204C175.701 308.204 174.761 307.524 174.761 305.204C174.793 303.53 175.052 301.868 175.531 300.264C175.638 299.045 175.863 297.839 176.201 296.664ZM177.391 282.084C177.391 281.994 177.571 281.914 177.651 281.914L179.651 279.024C180.298 279.413 180.838 279.957 181.223 280.606C181.609 281.255 181.828 281.989 181.861 282.744C181.861 283.074 181.781 283.334 181.781 283.674C181.577 284.628 181.171 285.528 180.591 286.314L180.161 286.394C178.712 285.366 177.707 283.825 177.351 282.084H177.391ZM192.151 303.394C192.151 305.254 193.421 306.034 195.301 306.034C200.301 306.034 208.601 300.834 211.241 298.194L212.091 299.194C209.301 302.014 199.901 308.014 193.851 308.014C193.213 308.055 192.574 307.963 191.973 307.745C191.372 307.526 190.824 307.185 190.361 306.744C189.899 306.302 189.532 305.772 189.281 305.184C189.034 304.591 188.908 303.955 188.911 303.314C188.911 298.674 194.201 292.244 197.911 292.244C198.193 292.202 198.481 292.226 198.751 292.314C199.025 292.397 199.276 292.544 199.481 292.744C199.684 292.945 199.84 293.187 199.941 293.454C200.04 293.722 200.075 294.01 200.041 294.294C199.999 294.728 199.912 295.157 199.781 295.574C199.531 296.334 197.921 296.844 197.311 296.844C197.141 296.844 197.051 296.844 197.051 296.764C197.051 296.424 197.231 296.164 197.231 295.904C197.231 295.484 197.141 295.224 196.891 295.224C195.901 295.204 192.151 299.634 192.151 303.394ZM229.561 304.834C229.561 306.204 229.981 307.224 230.661 307.224C234.661 307.224 244.551 300.574 246.931 298.224L247.791 299.224C246.341 300.664 234.331 310.224 228.451 310.224C226.451 310.224 225.121 309.124 225.121 306.304C225.181 304.829 225.44 303.369 225.891 301.964C225.981 301.534 226.231 300.964 226.401 300.344C226.63 299.9 226.83 299.442 227.001 298.974C227 298.932 226.982 298.892 226.951 298.864C226.918 298.832 226.876 298.811 226.831 298.804C220.431 302.214 217.831 305.114 211.661 306.134C210.823 306.1 210.029 305.747 209.443 305.146C208.857 304.545 208.524 303.743 208.511 302.904C208.511 299.064 216.261 291.654 224.101 291.654C226.571 291.654 228.531 292.504 229.301 294.444C230.581 294.704 231.091 295.804 231.091 297.224C231.061 300.014 229.561 302.104 229.561 304.834ZM223.621 294.224C217.241 294.224 210.761 302.144 210.761 303.424C210.761 304.194 211.761 304.274 212.381 304.274C218.091 303.274 219.961 299.934 225.241 296.004L226.531 295.244C226.134 294.897 225.677 294.625 225.181 294.444C224.68 294.271 224.151 294.196 223.621 294.224ZM257.591 269.304C257.034 268.257 256.63 267.135 256.391 265.974C256.401 265.545 256.462 265.118 256.571 264.704C257.308 264.031 258.104 263.429 258.951 262.904C260.045 262.67 261.165 262.586 262.281 262.654C267.094 262.736 271.89 263.221 276.621 264.104C280.461 264.784 281.391 264.874 285.151 265.724C286.473 265.953 287.778 266.264 289.061 266.654C293.241 268.654 291.111 267.844 295.281 269.034L295.201 269.124L292.561 268.784C292.373 268.855 292.172 268.882 291.971 268.864C289.397 268.736 286.832 268.452 284.291 268.014C277.401 266.904 270.351 265.224 262.741 265.224C262.231 265.224 261.541 265.304 261.031 265.304C260.282 265.487 259.544 265.714 258.821 265.984C259.023 266.822 259.277 267.647 259.581 268.454C261.558 273.539 262.902 278.849 263.581 284.264C264.681 280.174 265.791 276.164 266.811 272.174C267.321 270.394 267.741 267.914 268.611 266.304L270.821 266.554C270.758 267.047 270.644 267.533 270.481 268.004C268.771 274.514 266.911 280.954 265.111 287.434C266.448 287.094 267.822 286.923 269.201 286.924C270.119 286.876 271.038 286.96 271.931 287.174C272.431 287.464 272.931 287.774 273.381 288.104L273.291 288.364C270.741 289.364 267.291 289.554 264.351 290.224C264.261 290.654 264.091 291.084 264.001 291.504C263.886 297.053 262.998 302.559 261.361 307.864C261.101 308.544 261.191 309.484 260.591 309.864C259.946 310.356 259.185 310.676 258.381 310.794C257.701 310.794 257.521 310.194 257.521 309.504C257.563 308.736 257.65 307.971 257.781 307.214C259.061 301.754 260.431 296.214 261.881 290.674H261.621L260.001 289.824C260.257 289.399 260.597 289.031 261.001 288.744C261.394 288.448 261.843 288.237 262.321 288.124C261.942 281.609 260.338 275.224 257.591 269.304ZM281.001 303.134C281.001 305.134 282.621 306.034 284.581 306.034C289.581 306.034 297.871 300.834 300.511 298.194L301.361 299.194C298.591 302.014 289.201 308.014 283.151 308.014C280.591 308.014 277.691 306.734 277.691 303.834C277.691 298.834 281.691 293.354 285.621 292.414C285.923 292.318 286.235 292.26 286.551 292.244C286.842 292.212 287.136 292.246 287.411 292.344C287.683 292.436 287.929 292.59 288.131 292.794C288.341 292.996 288.499 293.247 288.591 293.524C288.69 293.795 288.724 294.086 288.691 294.374C288.669 294.778 288.612 295.179 288.521 295.574C288.071 297.086 287.149 298.414 285.889 299.364C284.63 300.314 283.099 300.836 281.521 300.854C281.221 301.579 281.046 302.35 281.001 303.134ZM285.901 295.804C285.901 295.374 285.731 295.204 285.471 295.204C284.791 295.204 283.261 296.914 282.151 299.124C284.171 299.014 285.921 298.194 285.921 295.804H285.901ZM307.861 304.924C307.861 306.714 308.461 307.484 309.391 307.484C313.111 307.484 321.321 299.894 323.031 298.184L323.881 299.184C320.001 303.124 312.001 310.714 307.441 310.714C305.301 310.714 304.191 309.254 304.191 306.994C304.191 301.994 308.281 298.994 308.281 293.354C308.281 291.354 307.011 288.924 306.281 288.924C306.031 288.924 305.861 289.344 305.861 290.194C305.861 294.024 303.731 296.844 301.341 299.194H301.001L300.571 298.194C301.493 297.294 302.224 296.219 302.722 295.033C303.22 293.846 303.475 292.571 303.471 291.284C303.492 289.438 302.894 287.639 301.771 286.174C301.851 285.174 304.151 284.174 304.151 284.174C309.771 285.174 311.471 288.524 311.471 292.544C311.431 297.504 307.861 300.654 307.861 304.924ZM330.361 304.924C330.361 306.714 330.951 307.484 331.891 307.484C335.611 307.484 343.821 299.894 345.521 298.184L346.381 299.184C342.451 303.104 334.531 310.694 329.931 310.694C327.801 310.694 326.691 309.234 326.691 306.974C326.691 301.974 330.781 298.974 330.781 293.334C330.781 291.334 329.501 288.904 328.781 288.904C328.521 288.904 328.351 289.324 328.351 290.174C328.351 294.004 326.231 296.824 323.841 299.174H323.411L322.991 298.174C323.912 297.274 324.643 296.2 325.141 295.014C325.64 293.827 325.892 292.551 325.881 291.264C325.902 289.418 325.304 287.619 324.181 286.154C324.261 285.154 326.561 284.154 326.561 284.154C332.191 285.154 333.901 288.504 333.901 292.524C333.941 297.504 330.361 300.654 330.361 304.924ZM346.281 303.134C346.281 305.134 347.901 306.034 349.861 306.034C354.861 306.034 363.161 300.834 365.801 298.194L366.651 299.194C363.861 302.014 354.471 308.014 348.411 308.014C345.861 308.014 342.971 306.734 342.971 303.834C342.971 298.834 346.971 293.354 350.891 292.414C351.193 292.317 351.505 292.26 351.821 292.244C352.109 292.212 352.399 292.246 352.671 292.344C352.943 292.436 353.189 292.59 353.391 292.794C353.598 292.999 353.755 293.249 353.851 293.524C353.95 293.795 353.984 294.086 353.951 294.374C353.929 294.778 353.872 295.179 353.781 295.574C353.331 297.086 352.409 298.414 351.149 299.364C349.89 300.314 348.359 300.836 346.781 300.854C346.488 301.58 346.319 302.351 346.281 303.134ZM351.281 295.804C351.281 295.374 351.101 295.204 350.851 295.204C350.171 295.204 348.641 296.914 347.521 299.124C349.441 299.014 351.231 298.194 351.231 295.804H351.281ZM366.051 296.664C366.651 295.124 367.421 294.434 368.101 294.434C369.031 294.434 369.721 295.554 369.721 297.174C369.723 297.897 369.609 298.616 369.381 299.304C368.785 300.683 368.407 302.147 368.261 303.644C368.261 304.924 368.871 305.644 369.891 305.644C373.131 305.644 379.001 300.644 381.391 298.204L382.241 299.204C379.781 301.684 372.391 308.204 366.811 308.204C365.531 308.204 364.591 307.524 364.591 305.204C364.623 303.53 364.882 301.868 365.361 300.264C365.47 299.043 365.701 297.837 366.051 296.664ZM367.241 282.084C367.241 281.994 367.421 281.914 367.501 281.914L369.551 279.024C370.195 279.415 370.734 279.957 371.121 280.604C371.512 281.252 371.732 281.988 371.761 282.744C371.761 283.074 371.681 283.334 371.681 283.674C371.477 284.628 371.071 285.528 370.491 286.314L370.061 286.394C368.608 285.367 367.599 283.826 367.241 282.084ZM388.721 304.924C388.721 306.714 389.321 307.484 390.261 307.484C393.971 307.484 402.181 299.894 403.891 298.184L404.741 299.184C400.821 303.104 392.901 310.694 388.291 310.694C386.161 310.694 385.061 309.234 385.061 306.974C385.061 301.974 389.151 298.974 389.151 293.334C389.151 291.334 387.871 288.904 387.151 288.904C386.891 288.904 386.721 289.324 386.721 290.174C386.721 294.004 384.591 296.824 382.201 299.174H381.781L381.351 298.174C382.275 297.277 383.006 296.202 383.501 295.014C383.999 293.826 384.254 292.551 384.251 291.264C384.273 289.416 383.671 287.616 382.541 286.154C382.631 285.154 384.931 284.154 384.931 284.154C390.511 285.154 392.261 288.504 392.261 292.524C392.301 297.504 388.721 300.654 388.721 304.924ZM422.201 304.834C422.201 306.204 422.631 307.224 423.311 307.224C427.311 307.224 441.911 302.224 442.841 301.644L443.381 302.644C441.721 303.644 426.981 310.194 421.071 310.194C419.071 310.194 417.751 309.084 417.751 306.274C417.808 304.799 418.063 303.339 418.511 301.934C418.601 301.504 418.861 300.934 419.021 300.314C419.25 299.87 419.45 299.412 419.621 298.944C419.618 298.899 419.6 298.857 419.571 298.824C419.532 298.814 419.491 298.814 419.451 298.824C413.061 302.234 410.451 305.134 404.291 306.154C403.447 306.118 402.649 305.76 402.061 305.154C401.481 304.546 401.149 303.743 401.131 302.904C401.131 299.064 408.891 291.654 416.731 291.654C419.201 291.654 421.151 292.514 421.921 294.444C423.201 294.704 423.711 295.814 423.711 297.234C423.741 300.014 422.201 302.104 422.201 304.834ZM416.201 294.224C409.811 294.224 403.331 302.144 403.331 303.424C403.331 304.194 404.331 304.274 404.951 304.274C410.661 303.274 412.541 299.934 417.821 296.004L419.091 295.244C418.299 294.541 417.259 294.181 416.201 294.244V294.224Z" stroke="#422637" stroke-width="1.5" stroke-linecap="round"/>
</svg>
