<svg width="47" height="48" viewBox="0 0 47 48" fill="none" xmlns="http://www.w3.org/2000/svg">
<path d="M44.3141 39.2163C43.8111 39.7492 43.2803 40.2551 42.7271 40.7368C42.1738 41.2186 41.5919 41.668 40.9966 42.0968C40.6998 42.3139 40.3941 42.5175 40.0892 42.7247C39.7844 42.9319 39.4724 43.123 39.1559 43.3096C38.5264 43.69 37.8839 44.0473 37.2282 44.3816C34.5961 45.7203 31.7942 46.6941 28.8995 47.2764C28.1742 47.419 27.4435 47.5374 26.7073 47.6253C25.9712 47.7133 25.2288 47.7617 24.4846 47.7805C18.4509 47.9311 12.582 45.8011 8.048 41.8151C5.79368 39.8362 3.93477 37.4476 2.56972 34.7759C1.89138 33.4419 1.34137 32.0463 0.927128 30.6081C-0.730703 24.8607 -0.148803 18.5185 2.54102 13.2052C5.23333 7.83273 9.84416 3.66781 15.4603 1.53539C16.8465 1.01044 18.279 0.616992 19.7389 0.360242C21.1973 0.105482 22.6761 -0.0146306 24.1565 0.00141917C27.1162 0.0192729 30.0506 0.548545 32.8303 1.56589C35.6087 2.58836 38.1587 4.1481 40.3349 6.15614C41.4165 7.15997 42.3896 8.27487 43.2381 9.48243C44.0837 10.6901 44.7973 11.9851 45.3667 13.3452C45.9347 14.7021 46.3576 16.1153 46.6282 17.5613C46.8988 19.0073 47.0223 20.477 46.9967 21.948C46.977 22.3184 46.9339 22.6835 46.8784 23.0477C46.8228 23.4119 46.7519 23.7726 46.6641 24.1305C46.4847 24.8437 46.2516 25.5541 45.875 26.1937C45.5164 26.8315 45.0833 27.4496 44.5221 27.9349C43.9608 28.4202 43.2982 28.7575 42.6562 29.1011L42.6033 29.0015C43.2417 28.6526 43.8927 28.3135 44.4261 27.8291C44.9596 27.3447 45.3747 26.7454 45.7199 26.1103C46.0651 25.4752 46.3036 24.7898 46.465 24.0874C46.5466 23.7349 46.6112 23.3788 46.6614 23.0199C46.7116 22.6611 46.751 22.3023 46.7627 21.9435C46.7826 19.035 46.2005 16.1539 45.0529 13.4815C44.477 12.153 43.7608 10.8899 42.9162 9.71387C42.0708 8.54095 41.1043 7.46032 40.0327 6.48984C37.8809 4.55367 35.3693 3.0601 32.6411 2.09426C29.9175 1.12684 27.0475 0.637029 24.1574 0.646404C22.7175 0.644534 21.2806 0.774552 19.8644 1.03483C15.9731 1.74837 12.3317 3.45429 9.29211 5.98765C6.25253 8.52102 3.91763 11.7961 2.51316 15.4964C1.10869 19.1966 0.682147 23.1968 1.27477 27.1102C1.8674 31.0236 3.45915 34.7178 5.89614 37.8357C8.54397 41.2258 12.0685 43.8264 16.0879 45.3558C17.4254 45.8598 18.8059 46.2414 20.2123 46.4959C21.6198 46.7553 23.0481 46.8844 24.4793 46.8817C25.1966 46.8817 25.9138 46.8413 26.6248 46.7785C27.3359 46.7157 28.0531 46.6171 28.7633 46.4986C30.1854 46.2538 31.5893 45.9133 32.9657 45.4796C33.6561 45.267 34.3375 45.0257 35.0126 44.7619C35.6878 44.4982 36.3575 44.2183 37.0103 43.9151C37.663 43.6119 38.3157 43.2872 38.9505 42.9364C39.2697 42.7651 39.5782 42.5776 39.8938 42.3982C40.2094 42.2188 40.5133 42.0214 40.8155 41.8205C41.4225 41.424 42.0169 41.0069 42.5872 40.5565C43.1574 40.1062 43.7133 39.637 44.2405 39.1347L44.3141 39.2163Z" fill="#422637"/>
<path d="M8.19401 25.0786H8.593V14.8109H8.619L12.3166 25.0786H16.9162L12.9801 14.3848H6.59894V14.7301H8.19401V25.0786Z" fill="#422637"/>
<path d="M14.1127 30.0663L15.2667 33.2723H15.6657L16.8106 30.0663H14.1127Z" fill="#422637"/>
<path d="M8.593 30.0663H8.19401V32.6605H6.59894V33.0059H10.1881V32.6605H8.593V30.0663Z" fill="#422637"/>
<path d="M33.8821 30.0663H29.6815V32.6605H28.1357H28.0855H26.5406V30.0663H22.2862V32.6605H20.6912V33.0059H28.0855H28.1357H35.6367V32.6605H33.8821V30.0663Z" fill="#422637"/>
<path d="M28.1356 14.3839H21.9938L18.1716 25.0768H18.5921L22.2592 14.8091H22.2861V25.0777H26.5405V14.7301H29.6786V25.0777H33.8793V23.803H34.9166C35.5281 23.803 36.2194 23.803 36.7242 23.8828C38.6125 24.0694 39.3306 25.1333 39.4095 26.8629H39.7583V20.7691H39.4122C39.2795 22.2583 38.4824 23.1634 36.7009 23.3491C36.3019 23.4289 35.6375 23.4289 35.0251 23.4289H33.8819V14.7571H35.4546C36.9439 14.7571 38.2726 14.81 39.2571 15.3159C40.2138 15.8479 40.8522 16.832 41.0378 18.7247H41.4108V14.3839H28.1356Z" fill="#422637"/>
<path d="M8.79482 28.2183C8.75403 28.321 8.70453 28.42 8.64688 28.5143C8.57087 28.6078 8.48848 28.6959 8.40031 28.778C8.31963 28.7629 8.24186 28.735 8.16989 28.6955C8.13671 28.6713 8.12864 28.5556 8.12864 28.4569C8.12864 28.3833 8.13671 28.3179 8.13671 28.3089C8.16989 27.7832 8.26044 27.166 8.26044 26.6403V26.5749C7.98548 26.9938 7.74356 27.4334 7.53688 27.89C7.24996 28.5062 6.97829 29.1234 6.74876 29.7639C6.71559 29.8536 6.71559 29.9702 6.65013 30.033C6.55151 30.1227 6.44481 30.2053 6.37039 30.2053C6.32108 30.2053 6.2879 30.173 6.2879 30.0743C6.29501 30.0023 6.30609 29.9307 6.32108 29.8599C6.56141 28.4601 6.87687 27.0742 7.2661 25.7083C7.29171 25.5817 7.34806 25.4634 7.43018 25.3638C7.49653 25.3881 7.57005 25.4123 7.63551 25.4374C7.61798 25.5446 7.58788 25.6494 7.54585 25.7496C7.15917 26.9457 6.85952 28.1683 6.64924 29.4078C7.07602 28.4712 7.38804 27.4594 7.94753 26.5964C8.03719 26.4565 8.14478 26.2098 8.325 26.2098C8.40056 26.2143 8.47261 26.2433 8.53032 26.2923C8.55671 26.3256 8.57617 26.3639 8.58756 26.4049C8.59895 26.4459 8.60205 26.4887 8.59667 26.5309V26.6377C8.59667 27.271 8.44873 27.7392 8.43169 28.3232C8.83427 27.7061 9.1714 26.9992 9.50045 26.3174C9.74702 25.7989 10.0339 25.3055 10.2177 24.7547C10.2339 24.7054 10.2258 24.6238 10.2751 24.6067C10.3176 24.5929 10.3624 24.5875 10.4069 24.5906C10.4724 24.5906 10.5468 24.5986 10.6122 24.5986H10.6365C10.6284 24.6973 10.6284 24.8121 10.6122 24.9108C10.5871 25.0427 10.5378 25.1575 10.5056 25.2894C10.2671 26.1604 10.0456 27.0566 9.87792 27.994C9.6726 29.1781 9.81247 28.2739 9.65646 29.3755C9.63136 29.5477 9.58204 29.7209 9.57397 29.8931C9.5659 30.025 9.56591 30.1559 9.56591 30.2878H9.54977C9.49216 30.0008 9.45916 29.7094 9.45114 29.4167C9.46451 28.936 9.5194 28.4573 9.61522 27.9859C9.76316 27.1786 9.94427 26.3174 10.1084 25.511C9.63225 26.3937 9.24671 27.306 8.79482 28.2183Z" fill="#422637"/>
<path d="M11.3664 29.8626C11.0785 29.8626 10.9306 29.6168 10.9306 29.2876C10.9428 28.9503 11.0545 28.6241 11.2516 28.3502C11.2919 28.2928 11.3332 28.2434 11.3744 28.1941C11.4569 28.1116 11.5968 27.9393 11.7331 27.9393C11.7411 27.9393 11.7582 27.9474 11.7662 27.9474C11.8426 27.8913 11.9343 27.86 12.0289 27.8577C12.2836 27.8577 12.4566 28.1268 12.4566 28.4336C12.4514 28.5864 12.4236 28.7375 12.3741 28.8821C12.5406 28.9678 12.725 29.0127 12.9121 29.0131C13.2135 28.9902 13.4991 28.8692 13.7253 28.6686L13.8078 28.7673C13.4957 29.0362 13.1022 29.1923 12.6906 29.2105C12.543 29.2103 12.3961 29.1882 12.2549 29.145C12.0648 29.5343 11.7358 29.8626 11.3664 29.8626ZM11.6049 28.5969C11.465 28.8355 11.2677 29.2248 11.2677 29.4275C11.2677 29.5836 11.317 29.641 11.3906 29.641C11.6291 29.641 11.9285 29.4437 12.1141 29.0903C12.0005 29.0463 11.8969 28.98 11.8094 28.8953C11.722 28.8105 11.6524 28.709 11.6049 28.5969ZM12.254 28.5072C12.254 28.343 12.1464 28.1869 12.0487 28.1869C11.9904 28.1869 11.9411 28.2363 11.9411 28.3592C11.9411 28.5072 12.0487 28.6722 12.2208 28.7951C12.2403 28.7 12.2514 28.6033 12.254 28.5063V28.5072Z" fill="#422637"/>
<path d="M14.9402 28.3582C14.9627 28.3568 14.9852 28.3598 15.0065 28.3672C15.2199 28.4488 15.2441 28.6462 15.2441 28.8354C15.2441 28.9583 15.2118 29.1144 15.2118 29.2302C15.2118 29.3288 15.2361 29.3943 15.3185 29.3943C15.7041 29.3943 16.641 28.9009 16.8715 28.6713L16.954 28.77C16.7155 29.0077 15.5651 29.6984 15.0469 29.6984C14.8675 29.6984 14.8173 29.6168 14.8173 29.4598C14.8173 29.3288 14.8496 29.1396 14.8496 28.909C14.8496 28.8848 14.8415 28.8023 14.8335 28.7448C14.4641 28.9422 14.2417 29.1037 14.0445 29.353C14.0364 29.3611 13.8391 29.6078 13.8149 29.6329C13.7486 29.6903 13.6751 29.7226 13.6096 29.7729C13.5352 29.7316 13.4034 29.7235 13.4034 29.6078C13.4051 29.5549 13.4136 29.5025 13.4285 29.4517C13.5513 28.8929 13.6177 28.4075 13.6831 27.9267C13.7073 27.9267 13.7405 27.9178 13.7656 27.9178C13.9871 27.9178 14.0696 28.1241 14.0696 28.3125C14.0546 28.5178 14.0102 28.7199 13.9378 28.9126C13.9136 29.0113 13.8723 29.1099 13.8391 29.2086C14.0615 29.0113 14.3161 28.8633 14.5215 28.6417C14.6201 28.5475 14.7842 28.3582 14.9402 28.3582Z" fill="#422637"/>
<path d="M16.8948 28.5233C16.9522 28.3752 17.0266 28.3089 17.092 28.3089C17.1817 28.3089 17.248 28.4165 17.248 28.5726C17.2486 28.6424 17.2374 28.7119 17.2149 28.778C17.158 28.9113 17.122 29.0526 17.1082 29.1969C17.1082 29.3207 17.1655 29.3862 17.2642 29.3862C17.5771 29.3862 18.1437 28.9009 18.3742 28.6686L18.4558 28.7673C18.2191 29.0059 17.5036 29.6338 16.9701 29.6338C16.8464 29.6338 16.7558 29.5683 16.7558 29.3459C16.7589 29.1844 16.7839 29.0242 16.8302 28.8695C16.8401 28.7522 16.8617 28.6362 16.8948 28.5233ZM17.0095 27.1167C17.0095 27.1086 17.0266 27.1005 17.0346 27.1005L17.2319 26.8215C17.2942 26.8592 17.3463 26.9116 17.3835 26.9742C17.4207 27.0368 17.4419 27.1076 17.4453 27.1804C17.4453 27.2127 17.4372 27.2378 17.4372 27.2701C17.4179 27.3623 17.3788 27.4493 17.3225 27.5248L17.2812 27.5329C17.1409 27.434 17.044 27.285 17.0104 27.1167H17.0095Z" fill="#422637"/>
<path d="M18.4327 29.1728C18.4327 29.3522 18.5555 29.4275 18.7366 29.4275C19.2217 29.4275 20.0188 28.9261 20.2734 28.6713L20.355 28.77C20.086 29.0391 19.1804 29.6168 18.5967 29.6168C18.5352 29.6206 18.4735 29.6117 18.4156 29.5906C18.3576 29.5695 18.3046 29.5367 18.26 29.4941C18.2153 29.4516 18.1798 29.4003 18.1559 29.3435C18.1319 29.2867 18.1199 29.2255 18.1206 29.1638C18.1206 28.7153 18.6299 28.0954 18.9832 28.0954C19.0104 28.0912 19.0382 28.0934 19.0644 28.1017C19.0907 28.11 19.1147 28.1243 19.1345 28.1434C19.1544 28.1624 19.1696 28.1858 19.1789 28.2117C19.1883 28.2377 19.1916 28.2654 19.1885 28.2927C19.1845 28.3348 19.176 28.3763 19.1634 28.4165C19.1392 28.4901 18.9841 28.5394 18.9258 28.5394C18.9088 28.5394 18.9007 28.5394 18.9007 28.5314C18.9007 28.4982 18.9177 28.4739 18.9177 28.4488C18.9177 28.4076 18.9088 28.3833 18.8845 28.3833C18.794 28.3833 18.4327 28.8103 18.4327 29.1728Z" fill="#422637"/>
<path d="M22.0396 29.3118C22.0396 29.4437 22.0808 29.5424 22.1463 29.5424C22.5327 29.5424 23.4858 28.901 23.7153 28.6713L23.7978 28.77C23.6579 28.909 22.4995 29.8303 21.9329 29.8303C21.7437 29.8303 21.6119 29.7236 21.6119 29.4518C21.618 29.3094 21.643 29.1686 21.6863 29.0328C21.6944 28.9916 21.7186 28.9342 21.7356 28.8767C21.7571 28.8339 21.7763 28.7898 21.793 28.7449C21.7928 28.7407 21.791 28.7367 21.788 28.7337C21.7851 28.7307 21.7811 28.7289 21.7769 28.7287C21.16 29.0571 20.9054 29.3369 20.3136 29.4356C20.2326 29.4324 20.156 29.3982 20.0994 29.3402C20.0429 29.2821 20.0107 29.2045 20.0096 29.1234C20.0096 28.753 20.7574 28.038 21.5133 28.038C21.7518 28.038 21.9409 28.1205 22.0145 28.3071C22.1382 28.3322 22.1875 28.439 22.1875 28.5762C22.1848 28.8436 22.0396 29.049 22.0396 29.3118ZM21.4675 28.2883C20.8516 28.2883 20.2266 29.0526 20.2266 29.1764C20.2266 29.2499 20.3252 29.258 20.3835 29.258C20.934 29.1593 21.1143 28.8391 21.6235 28.4605L21.7473 28.387C21.7094 28.3529 21.6652 28.3267 21.6172 28.3098C21.5692 28.2928 21.5184 28.2855 21.4675 28.2883Z" fill="#422637"/>
<path d="M24.7429 25.8841C24.6894 25.7831 24.6505 25.6749 24.6273 25.563C24.6286 25.5215 24.6343 25.4803 24.6443 25.4401C24.7153 25.3754 24.7921 25.3174 24.8738 25.2669C24.9792 25.2441 25.0872 25.2359 25.1948 25.2427C25.6591 25.2506 26.1219 25.2974 26.5783 25.3827C26.9486 25.4481 27.0382 25.4562 27.4005 25.5387C27.5281 25.5606 27.6542 25.5905 27.7779 25.6285C28.1805 25.8177 27.9752 25.7433 28.3778 25.8581L28.3697 25.8671L28.1151 25.8339C28.0967 25.8405 28.0772 25.8432 28.0577 25.842C27.8097 25.8295 27.5626 25.8019 27.318 25.7594C26.6527 25.6527 25.9731 25.4903 25.2396 25.4903C25.1903 25.4903 25.124 25.4984 25.0747 25.4984C25.0254 25.4984 24.9348 25.5477 24.8613 25.5639C24.8811 25.6448 24.9057 25.7245 24.9348 25.8025C25.1258 26.293 25.2556 26.8052 25.3212 27.3275C25.4279 26.9328 25.5346 26.5461 25.6333 26.1613C25.6826 25.9891 25.7229 25.7505 25.8063 25.5944L26.0197 25.6186C26.0139 25.6663 26.0028 25.7133 25.9865 25.7585C25.8224 26.3865 25.6422 27.0081 25.4692 27.6334C25.598 27.6002 25.7306 27.5836 25.8637 27.584C25.952 27.5793 26.0405 27.5874 26.1264 27.6083C26.1746 27.6356 26.2213 27.6656 26.2663 27.698L26.2582 27.7231C26.0116 27.8209 25.6826 27.8379 25.3957 27.9025C25.3867 27.9438 25.3705 27.985 25.3625 28.0263C25.3509 28.5615 25.2652 29.0925 25.1078 29.6042C25.0827 29.6697 25.0908 29.7603 25.0334 29.8016C24.9714 29.8496 24.8978 29.8806 24.82 29.8913C24.7546 29.8913 24.7375 29.8339 24.7375 29.7675C24.7415 29.6932 24.7498 29.6192 24.7626 29.5459C24.8855 29.0193 25.0173 28.4856 25.1572 27.9509H25.132L24.976 27.8684C25.0004 27.8277 25.0326 27.7922 25.0708 27.764C25.109 27.7359 25.1523 27.7155 25.1984 27.7042C25.1622 27.0743 25.0077 26.4568 24.7429 25.8841Z" fill="#422637"/>
<path d="M27.0023 29.1476C27.0023 29.345 27.1583 29.4275 27.3475 29.4275C27.8316 29.4275 28.6287 28.926 28.8833 28.6713L28.9658 28.77C28.6969 29.0391 27.7913 29.6168 27.2076 29.6168C26.961 29.6168 26.6813 29.493 26.6813 29.2131C26.6813 28.7287 27.0677 28.2021 27.4461 28.1115C27.4751 28.1022 27.5053 28.0968 27.5357 28.0954C27.5635 28.0923 27.5916 28.0954 27.618 28.1046C27.6444 28.1138 27.6683 28.1289 27.6881 28.1486C27.7079 28.1683 27.723 28.1922 27.7324 28.2186C27.7417 28.2449 27.745 28.273 27.742 28.3008C27.7397 28.3398 27.734 28.3785 27.7249 28.4165C27.6818 28.5623 27.5932 28.6904 27.472 28.7821C27.3508 28.8738 27.2035 28.9242 27.0516 28.926C27.0224 28.9965 27.0058 29.0715 27.0023 29.1476ZM27.4748 28.4407C27.4748 28.3995 27.4586 28.3833 27.4335 28.3833C27.3681 28.3833 27.2201 28.5475 27.1134 28.761C27.3062 28.7529 27.4748 28.6713 27.4748 28.4407Z" fill="#422637"/>
<path d="M29.5899 29.3208C29.5899 29.493 29.6482 29.5675 29.7378 29.5675C30.0965 29.5675 30.8882 28.8355 31.0532 28.6704L31.1347 28.7691C30.7573 29.1468 29.9925 29.8788 29.5495 29.8788C29.3433 29.8788 29.2366 29.7388 29.2366 29.5199C29.2366 29.0427 29.6311 28.7467 29.6311 28.2039C29.6311 28.0147 29.5083 27.7769 29.442 27.7769C29.4177 27.7769 29.4016 27.8173 29.4016 27.8998C29.4016 28.2694 29.1963 28.5412 28.9659 28.7718H28.9246L28.8834 28.6731C28.9725 28.5866 29.0432 28.483 29.0912 28.3684C29.1393 28.2539 29.1637 28.1308 29.1631 28.0066C29.1652 27.8284 29.1075 27.6546 28.999 27.5132C29.0071 27.4145 29.2286 27.3248 29.2286 27.3248C29.771 27.4235 29.9351 27.7438 29.9351 28.1322C29.9351 28.6049 29.5899 28.909 29.5899 29.3208Z" fill="#422637"/>
<path d="M31.7598 29.3208C31.7598 29.493 31.8171 29.5675 31.9077 29.5675C32.2663 29.5675 33.058 28.8355 33.2221 28.6704L33.3046 28.7691C32.9262 29.1468 32.1623 29.8788 31.7185 29.8788C31.5132 29.8788 31.4065 29.7388 31.4065 29.5199C31.4065 29.0427 31.8001 28.7467 31.8001 28.2039C31.8001 28.0147 31.6773 27.7769 31.6118 27.7769C31.5867 27.7769 31.5706 27.8173 31.5706 27.8998C31.5706 28.2694 31.3652 28.5412 31.1348 28.7718H31.0936L31.0532 28.6731C31.142 28.5864 31.2125 28.4827 31.2604 28.3682C31.3083 28.2537 31.3327 28.1307 31.3321 28.0066C31.3342 27.8284 31.2764 27.6546 31.168 27.5132C31.1761 27.4145 31.3975 27.3248 31.3975 27.3248C31.94 27.4235 32.1049 27.7438 32.1049 28.1322C32.1049 28.6049 31.7598 28.909 31.7598 29.3208Z" fill="#422637"/>
<path d="M33.2956 29.1476C33.2956 29.345 33.4516 29.4275 33.6407 29.4275C34.1258 29.4275 34.9229 28.9261 35.1775 28.6713L35.2591 28.77C34.9901 29.0391 34.0846 29.6168 33.5009 29.6168C33.2543 29.6168 32.9755 29.493 32.9755 29.2131C32.9755 28.7287 33.3619 28.2021 33.7394 28.1115C33.7685 28.1024 33.7986 28.0969 33.829 28.0954C33.8568 28.0922 33.8848 28.0954 33.9112 28.1046C33.9375 28.1138 33.9614 28.1289 33.9812 28.1486C34.0009 28.1683 34.0159 28.1923 34.0251 28.2186C34.0344 28.245 34.0375 28.2731 34.0344 28.3008C34.0324 28.3398 34.027 28.3785 34.0182 28.4165C33.975 28.5624 33.8862 28.6905 33.7648 28.7822C33.6435 28.8739 33.496 28.9243 33.344 28.9261C33.3156 28.9967 33.2992 29.0716 33.2956 29.1476ZM33.7725 28.4408C33.7725 28.3995 33.7555 28.3833 33.7313 28.3833C33.6659 28.3833 33.5179 28.5475 33.4103 28.761C33.5995 28.7529 33.7725 28.6713 33.7725 28.4408Z" fill="#422637"/>
<path d="M35.2017 28.5233C35.2591 28.3752 35.3335 28.3089 35.3989 28.3089C35.4886 28.3089 35.5549 28.4165 35.5549 28.5726C35.5554 28.6424 35.5445 28.7118 35.5227 28.778C35.4651 28.9112 35.4288 29.0525 35.4151 29.1969C35.4151 29.3207 35.4734 29.3862 35.572 29.3862C35.884 29.3862 36.4507 28.9009 36.6811 28.6686L36.7627 28.7673C36.5251 29.0059 35.8132 29.6338 35.2752 29.6338C35.1515 29.6338 35.0609 29.5683 35.0609 29.3459C35.064 29.1844 35.089 29.0242 35.1353 28.8695C35.1458 28.7522 35.168 28.6362 35.2017 28.5233ZM35.3164 27.1167C35.3164 27.1086 35.3335 27.1005 35.3416 27.1005L35.5388 26.8215C35.6011 26.8592 35.6532 26.9116 35.6904 26.9742C35.7276 27.0368 35.7488 27.1076 35.7522 27.1804C35.7522 27.2127 35.7441 27.2378 35.7441 27.2701C35.7248 27.3623 35.6857 27.4493 35.6294 27.5248L35.5881 27.5329C35.4478 27.4339 35.3506 27.285 35.3164 27.1167Z" fill="#422637"/>
<path d="M37.3878 29.3208C37.3878 29.493 37.4452 29.5675 37.5357 29.5675C37.8944 29.5675 38.6861 28.8355 38.8502 28.6704L38.9327 28.7691C38.5543 29.1468 37.7904 29.8788 37.3466 29.8788C37.1412 29.8788 37.0345 29.7388 37.0345 29.5199C37.0345 29.0427 37.429 28.7467 37.429 28.2039C37.429 28.0147 37.3053 27.7769 37.2399 27.7769C37.2148 27.7769 37.1986 27.8173 37.1986 27.8998C37.1986 28.2694 36.9933 28.5412 36.7629 28.7718H36.7225L36.6813 28.6731C36.7701 28.5864 36.8405 28.4827 36.8884 28.3682C36.9364 28.2537 36.9607 28.1307 36.9601 28.0066C36.9623 27.8284 36.9045 27.6546 36.796 27.5132C36.8041 27.4145 37.0265 27.3248 37.0265 27.3248C37.5644 27.4235 37.733 27.7438 37.733 28.1322C37.733 28.6049 37.3878 28.909 37.3878 29.3208Z" fill="#422637"/>
<path d="M40.6164 29.3118C40.6164 29.4437 40.6577 29.5423 40.7231 29.5423C41.1096 29.5423 42.5163 29.0642 42.606 29.0041L42.6589 29.1037C42.4984 29.1979 41.0773 29.8321 40.507 29.8321C40.3179 29.8321 40.187 29.7253 40.187 29.4535C40.1927 29.3112 40.2174 29.1703 40.2605 29.0346C40.2685 28.9933 40.2937 28.9359 40.3098 28.8785C40.3317 28.8358 40.3509 28.7918 40.3672 28.7466C40.367 28.7424 40.3652 28.7385 40.3622 28.7355C40.3592 28.7325 40.3552 28.7307 40.351 28.7305C39.7351 29.0588 39.4804 29.3387 38.8887 29.4374C38.8077 29.4342 38.731 29.4 38.6745 29.3419C38.6179 29.2838 38.5858 29.2063 38.5847 29.1252C38.5847 28.7547 39.3325 28.0398 40.0883 28.0398C40.3268 28.0398 40.5151 28.1223 40.5895 28.3089C40.7124 28.334 40.7617 28.4407 40.7617 28.578C40.7644 28.8435 40.6164 29.049 40.6164 29.3118ZM40.0417 28.2882C39.4248 28.2882 38.8008 29.0525 38.8008 29.1763C38.8008 29.2499 38.8994 29.258 38.9568 29.258C39.5073 29.1593 39.6884 28.839 40.1977 28.4605L40.3206 28.3869C40.2828 28.353 40.2388 28.3268 40.1909 28.3098C40.1431 28.2929 40.0924 28.2856 40.0417 28.2882Z" fill="#422637"/>
<path d="M12.5337 27.672L12.704 27.507" stroke="#422637" stroke-width="1.5" stroke-linecap="round" stroke-linejoin="round"/>
</svg>
