<svg width="64" height="81" viewBox="0 0 64 81" fill="none" xmlns="http://www.w3.org/2000/svg">
<path d="M45.2674 21.2616L40.1858 17.4798C40.1858 17.4798 33.3837 27.101 31.0872 30.704C28.7907 34.3069 25.3698 39.1239 25.3698 39.1239L29.6208 42.2878L33.8718 45.4516C33.8718 45.4516 37.4954 40.7891 40.2889 37.5556C43.0825 34.3221 50.3491 25.0303 50.3491 25.0303L45.2674 21.2616Z" fill="#F8D9DE"/>
<path d="M63.2141 9.39735C61.6434 5.17772 59.9793 4.17281 58.6712 3.20541C57.3631 2.238 55.9271 0.945411 51.4419 0.651093C46.9566 0.356776 45.2662 3.00985 44.3257 5.34882C43.3852 7.68779 40.1591 17.4664 40.1591 17.4664L45.267 21.2619L50.3485 25.0437C50.3485 25.0437 58.787 19.141 60.7609 17.5679C62.7347 15.9948 64.7918 13.584 63.2141 9.39735Z" fill="#422E24"/>
<path d="M29.6209 42.2877L25.3699 39.1238L1.11433 71.7229C0.698974 72.2813 0.397636 72.9161 0.227526 73.591C0.0574155 74.2659 0.0218642 74.9678 0.122902 75.6564C0.223939 76.3451 0.459588 77.0071 0.816391 77.6047C1.17319 78.2022 1.64416 78.7236 2.20241 79.1391C2.76066 79.5546 3.39526 79.856 4.06996 80.0262C4.74467 80.1963 5.44627 80.2319 6.13472 80.1308C6.82316 80.0297 7.48497 79.794 8.08234 79.4371C8.67972 79.0802 9.20097 78.6091 9.61633 78.0506L33.8719 45.4516L29.6209 42.2877Z" fill="#262626"/>
<path d="M33.6499 36.8644L29.2158 33.5596L28.8599 34.0371L33.3006 37.3421L37.7347 40.6469L38.0906 40.1694L33.6499 36.8644Z" fill="#262626"/>
<path d="M27.3055 36.3554L26.9692 36.8465L31.2791 40.0573L35.5955 43.2682L35.9644 42.804L31.635 39.5797L27.3055 36.3554Z" fill="#262626"/>
<g style="mix-blend-mode:overlay" opacity="0.35">
<path d="M63.2144 9.39737C61.6437 5.17775 59.9796 4.17283 58.6715 3.20543L45.2673 21.2619L33.6498 36.8777L33.3005 37.3554L31.6353 39.5796L31.2794 40.0571L29.6207 42.288L2.19553 79.1392C2.7531 79.5581 3.38807 79.8623 4.06379 80.0343C4.73951 80.2064 5.4426 80.2428 6.13249 80.1417C6.82238 80.0405 7.4854 79.8036 8.0833 79.4448C8.68121 79.0859 9.20215 78.6122 9.61606 78.0509L33.8717 45.4518C33.8717 45.4518 35.657 43.1301 37.7151 40.6336L38.071 40.156C38.8084 39.2606 39.5659 38.3523 40.2692 37.5424C43.0632 34.2759 50.3294 25.0171 50.3294 25.0171C50.3294 25.0171 58.7873 19.141 60.7612 17.5679C62.7351 15.9948 64.7921 13.5841 63.2144 9.39737Z" fill="#191919"/>
</g>
</svg>
