<svg width="67" height="17" viewBox="0 0 67 17" fill="none" xmlns="http://www.w3.org/2000/svg">
<path d="M58.0763 1.13904C63.0013 2.27232 66.5362 6.0321 65.3417 10.7051C64.4726 14.1048 60.5763 16.639 56.3613 13.8215C50.6802 10.0239 51.5763 5.63904 47.6706 2.77229C43.765 -0.0944662 37.5752 0.533446 34.5752 4.53345C31.1693 9.07466 36.0752 14.5334 39.5752 12.0334C43.0752 9.53345 40.4723 5.90019 37.5752 7.03345" stroke="#B3ABB2" stroke-width="2" stroke-linecap="round"/>
<path d="M8.92371 1.13904C3.99875 2.27232 0.463761 6.0321 1.65831 10.7051C2.52737 14.1048 6.4237 16.639 10.6387 13.8215C16.3198 10.0239 15.4237 5.63904 19.3294 2.77229C23.235 -0.0944643 29.4248 0.533448 32.4248 4.53345C35.8307 9.07467 30.9248 14.5334 27.4248 12.0334C23.9248 9.53345 26.5277 5.90019 29.4248 7.03345" stroke="#B3ABB2" stroke-width="2" stroke-linecap="round"/>
</svg>
