<svg width="682" height="694" viewBox="0 0 682 694" fill="none" xmlns="http://www.w3.org/2000/svg">
<g clip-path="url(#clip0_6_290)">
<path d="M642.997 568.725C635.698 576.453 627.996 583.791 619.969 590.777C611.942 597.763 603.499 604.281 594.86 610.5C590.554 613.648 586.118 616.602 581.695 619.607C577.271 622.612 572.744 625.383 568.151 628.089C559.018 633.605 549.695 638.788 540.18 643.636C501.99 663.05 461.334 677.174 419.332 685.619C408.807 687.687 398.204 689.404 387.523 690.679C376.842 691.954 366.07 692.657 355.272 692.93C267.722 695.113 182.564 664.222 116.776 606.415C84.0659 577.715 57.093 543.074 37.2861 504.327C27.4434 484.98 19.4628 464.741 13.4521 443.883C-10.603 360.53 -2.15962 268.55 36.8698 191.493C75.9352 113.577 142.838 53.1747 224.328 22.2487C244.443 14.6355 265.228 8.92946 286.411 5.20589C307.573 1.51117 329.029 -0.230799 350.51 0.00196619C393.456 0.260894 436.034 7.93679 476.367 22.6911C516.682 37.5197 553.683 60.1402 585.259 89.2622C600.954 103.821 615.073 119.99 627.385 137.503C639.654 155.018 650.008 173.799 658.27 193.523C666.513 213.202 672.648 233.698 676.575 254.669C680.502 275.64 682.293 296.955 681.922 318.287C681.636 323.66 681.011 328.955 680.205 334.237C679.398 339.519 678.37 344.749 677.095 349.94C674.493 360.282 671.111 370.586 665.647 379.862C660.443 389.112 654.159 398.076 646.015 405.114C637.871 412.152 628.257 417.044 618.942 422.027L618.174 420.583C627.437 415.522 636.882 410.604 644.623 403.579C652.364 396.554 658.387 387.863 663.396 378.652C668.405 369.441 671.865 359.502 674.207 349.315C675.391 344.202 676.328 339.037 677.056 333.833C677.785 328.63 678.357 323.426 678.526 318.222C678.816 276.041 670.368 234.257 653.717 195.5C645.362 176.233 634.968 157.915 622.714 140.859C610.447 123.849 596.423 108.176 580.875 94.1019C549.652 66.0221 513.209 44.3612 473.622 30.3538C434.103 16.3236 392.459 9.22004 350.523 9.35601C329.631 9.32889 308.78 11.2145 288.232 14.9893C231.77 25.3376 178.933 50.078 134.828 86.8188C90.7238 123.56 56.8444 171.058 36.4655 224.721C16.0866 278.385 9.89746 336.398 18.4965 393.153C27.0955 449.908 50.1918 503.485 85.5525 548.703C123.973 597.869 175.113 635.585 233.435 657.765C252.842 665.074 272.873 670.609 293.28 674.3C313.702 678.061 334.428 679.934 355.194 679.894C365.602 679.894 376.009 679.309 386.326 678.398C396.643 677.487 407.051 676.056 417.355 674.339C437.989 670.788 458.361 665.85 478.332 659.56C488.349 656.477 498.237 652.977 508.033 649.152C517.829 645.327 527.548 641.268 537.019 636.871C546.49 632.474 555.961 627.764 565.172 622.677C569.804 620.192 574.279 617.473 578.858 614.871C583.438 612.269 587.848 609.407 592.232 606.493C601.04 600.743 609.666 594.693 617.94 588.162C626.214 581.631 634.28 574.827 641.93 567.542L642.997 568.725Z" fill="url(#paint0_linear_6_290)"/>
<path d="M202.003 518.116V517.413C202.618 517.424 203.232 517.376 203.838 517.27C204.239 517.208 204.609 517.016 204.891 516.724C205.168 516.421 205.341 516.038 205.386 515.631C205.485 515.038 205.528 514.437 205.516 513.835V497.404L195.98 518.09H195.407L185.91 497.404V513.809C185.9 514.419 185.939 515.028 186.027 515.631C186.074 516.035 186.242 516.416 186.508 516.724C186.785 517.014 187.152 517.202 187.549 517.257C188.16 517.357 188.778 517.401 189.397 517.387V518.09H180.875V517.387C181.49 517.398 182.104 517.35 182.71 517.244C183.104 517.182 183.466 516.989 183.737 516.697C184.005 516.392 184.169 516.009 184.206 515.605C184.293 515.01 184.332 514.41 184.323 513.809V497.768C184.333 497.205 184.28 496.642 184.167 496.09C184.079 495.682 183.891 495.302 183.62 494.984C183.336 494.689 182.976 494.477 182.58 494.373C182.023 494.229 181.45 494.163 180.875 494.177V493.501H187.809L196.734 512.729L205.516 493.501H212.489V494.151C211.866 494.142 211.243 494.189 210.629 494.295C210.229 494.363 209.861 494.554 209.575 494.841C209.318 495.153 209.155 495.532 209.107 495.934C209.025 496.533 208.99 497.138 209.002 497.742V513.809C208.993 514.419 209.032 515.028 209.12 515.631C209.167 516.035 209.334 516.416 209.601 516.724C209.877 517.014 210.244 517.202 210.642 517.257C211.252 517.357 211.871 517.4 212.489 517.387V518.09L202.003 518.116Z" fill="#B76979"/>
<path d="M239.588 515.708C239.367 516.008 239.107 516.333 238.834 516.658C238.555 516.982 238.246 517.279 237.91 517.543C237.588 517.811 237.229 518.03 236.843 518.193C236.467 518.362 236.059 518.451 235.647 518.454C235.327 518.466 235.01 518.385 234.736 518.219C234.483 518.064 234.277 517.844 234.137 517.582C233.99 517.31 233.889 517.015 233.838 516.71C233.786 516.383 233.76 516.053 233.76 515.721L232.55 516.684C232.137 517.004 231.702 517.296 231.249 517.556C230.84 517.819 230.404 518.037 229.948 518.206C229.465 518.382 228.954 518.47 228.439 518.467C227.868 518.473 227.301 518.363 226.774 518.141C226.277 517.941 225.832 517.629 225.473 517.231C225.135 516.851 224.874 516.409 224.705 515.93C224.53 515.383 224.443 514.812 224.445 514.238C224.438 513.588 224.599 512.947 224.913 512.378C225.241 511.804 225.659 511.286 226.149 510.843C226.688 510.349 227.276 509.913 227.906 509.542C228.559 509.167 229.232 508.829 229.922 508.527C230.616 508.232 231.293 507.972 231.952 507.747L233.708 507.148V506.511C233.709 505.966 233.67 505.423 233.591 504.884C233.532 504.397 233.382 503.924 233.149 503.492C232.935 503.085 232.611 502.746 232.212 502.517C231.716 502.255 231.159 502.13 230.599 502.152C230.153 502.137 229.71 502.216 229.298 502.386C228.99 502.523 228.731 502.75 228.556 503.037C228.382 503.341 228.272 503.678 228.231 504.026C228.181 504.436 228.16 504.849 228.166 505.262C228.192 505.718 228.079 506.172 227.841 506.563C227.69 506.733 227.499 506.863 227.286 506.942C227.073 507.022 226.843 507.048 226.618 507.018C226.398 507.044 226.175 507.014 225.97 506.929C225.765 506.845 225.585 506.71 225.447 506.537C225.193 506.152 225.074 505.695 225.109 505.236C225.087 504.545 225.297 503.867 225.707 503.31C226.11 502.777 226.62 502.334 227.203 502.009C227.817 501.667 228.479 501.421 229.168 501.281C229.825 501.131 230.497 501.052 231.171 501.046C232.048 501.033 232.922 501.133 233.773 501.346C234.424 501.514 235.018 501.856 235.49 502.334C235.949 502.829 236.272 503.434 236.427 504.091C236.623 504.944 236.715 505.818 236.7 506.693V512.339C236.7 512.807 236.7 513.289 236.7 513.809C236.688 514.293 236.723 514.776 236.804 515.253C236.853 515.467 236.932 515.673 237.039 515.865C237.097 515.958 237.18 516.033 237.279 516.082C237.378 516.13 237.488 516.149 237.598 516.138C237.778 516.13 237.951 516.067 238.092 515.956C238.29 515.827 238.481 515.688 238.665 515.539L239.198 515.045L239.575 514.668L239.588 515.708ZM233.721 508.15L231.822 508.93C231.109 509.22 230.425 509.578 229.779 509.997C229.169 510.386 228.625 510.869 228.166 511.428C227.73 511.964 227.499 512.637 227.515 513.328C227.515 513.69 227.572 514.05 227.685 514.394C227.785 514.748 227.953 515.08 228.179 515.37C228.408 515.652 228.685 515.89 228.998 516.073C229.336 516.247 229.711 516.336 230.091 516.333C230.42 516.333 230.745 516.276 231.054 516.164C231.389 516.049 231.711 515.9 232.017 515.721C232.329 515.539 232.628 515.331 232.927 515.123L233.721 514.499V508.15Z" fill="#B76979"/>
<path d="M260.222 518.116V517.413H260.587C260.716 517.408 260.843 517.382 260.964 517.335C261.071 517.289 261.168 517.222 261.25 517.14C261.332 517.047 261.374 516.925 261.367 516.802C261.372 516.527 261.29 516.259 261.133 516.034C260.977 515.787 260.821 515.566 260.678 515.357L255.604 508.957V514.317C255.604 514.902 255.604 515.383 255.604 515.774C255.624 516.112 255.731 516.439 255.916 516.723C256.108 516.986 256.391 517.167 256.71 517.231C257.205 517.337 257.712 517.385 258.219 517.374V518.077H249.684V517.374C250.177 517.385 250.67 517.346 251.154 517.257C251.471 517.199 251.762 517.044 251.987 516.815C252.197 516.553 252.327 516.237 252.364 515.904C252.423 515.412 252.449 514.916 252.442 514.421V498.939C252.442 498.77 252.442 498.536 252.442 498.263C252.442 497.989 252.442 497.703 252.442 497.378C252.462 497.057 252.462 496.736 252.442 496.415C252.42 496.112 252.355 495.814 252.247 495.53C252.167 495.294 252.038 495.077 251.87 494.893C251.787 494.814 251.689 494.752 251.582 494.712C251.474 494.672 251.36 494.654 251.245 494.659C251.042 494.655 250.84 494.686 250.647 494.75L250.062 494.945L249.71 494.321L254.732 492.356H255.552V508.566L259.728 505.002L260.17 504.624C260.352 504.455 260.548 504.286 260.743 504.091C260.926 503.909 261.096 503.713 261.25 503.506C261.372 503.357 261.449 503.176 261.471 502.985C261.478 502.834 261.437 502.684 261.356 502.556C261.275 502.428 261.156 502.328 261.016 502.27C260.75 502.143 260.464 502.068 260.17 502.048V501.515H267.352V502.048C266.889 502.059 266.428 502.107 265.973 502.191C265.577 502.265 265.193 502.388 264.828 502.556C264.467 502.715 264.127 502.916 263.813 503.154C263.44 503.418 263.084 503.705 262.746 504.013L258.362 507.916L262.746 513.38L263.605 514.486C263.891 514.85 264.19 515.201 264.502 515.54C265.114 516.229 265.835 516.814 266.636 517.27C266.882 517.376 267.149 517.425 267.417 517.413H268.197V518.116H260.222Z" fill="#B76979"/>
<path d="M293.28 512.053C293.054 513.781 292.279 515.391 291.068 516.645C290.478 517.256 289.782 517.754 289.013 518.115C288.218 518.483 287.352 518.67 286.476 518.662C285.381 518.684 284.298 518.429 283.328 517.92C282.437 517.436 281.664 516.76 281.064 515.943C280.441 515.105 279.974 514.162 279.685 513.159C279.385 512.127 279.232 511.059 279.229 509.984C279.224 508.823 279.381 507.667 279.698 506.55C279.989 505.52 280.47 504.554 281.116 503.701C281.764 502.876 282.585 502.206 283.523 501.736C284.587 501.232 285.754 500.983 286.931 501.008C287.846 500.992 288.753 501.165 289.598 501.515C290.358 501.836 291.041 502.315 291.602 502.92C292.176 503.54 292.618 504.271 292.903 505.067C293.183 505.954 293.311 506.882 293.28 507.812H281.805C281.806 508.734 281.929 509.653 282.17 510.544C282.39 511.467 282.764 512.346 283.275 513.146C283.764 513.897 284.407 514.535 285.162 515.019C285.975 515.518 286.915 515.771 287.868 515.748C288.454 515.761 289.038 515.659 289.585 515.448C290.068 515.251 290.509 514.964 290.886 514.603C291.292 514.223 291.638 513.784 291.914 513.302C292.217 512.803 292.47 512.276 292.669 511.728L293.28 512.053ZM289.481 506.732C289.484 506.179 289.414 505.628 289.273 505.093C289.148 504.587 288.927 504.11 288.622 503.688C288.324 503.279 287.943 502.937 287.504 502.686C287.007 502.425 286.452 502.295 285.89 502.308C285.317 502.299 284.75 502.429 284.238 502.686C283.745 502.922 283.303 503.254 282.937 503.662C282.591 504.086 282.318 504.565 282.131 505.08C281.93 505.61 281.803 506.166 281.753 506.732H289.481Z" fill="#B76979"/>
<path d="M317.855 518.662H317.023V515.11C316.645 515.5 316.255 515.917 315.839 516.333C315.435 516.747 315 517.13 314.538 517.478C314.077 517.814 313.579 518.098 313.055 518.323C312.534 518.553 311.971 518.668 311.403 518.662C310.629 518.699 309.864 518.489 309.217 518.063C308.664 517.666 308.217 517.139 307.916 516.528C307.594 515.869 307.383 515.161 307.291 514.434C307.189 513.692 307.137 512.944 307.135 512.196V504.767C307.143 504.329 307.094 503.892 306.992 503.466C306.913 503.164 306.745 502.892 306.511 502.686C306.252 502.489 305.948 502.359 305.626 502.308C305.196 502.24 304.761 502.21 304.325 502.217V501.541H310.193V512.625C310.187 513.096 310.222 513.566 310.297 514.03C310.362 514.451 310.503 514.857 310.713 515.227C310.91 515.582 311.197 515.878 311.546 516.086C311.969 516.314 312.444 516.426 312.925 516.411C313.329 516.409 313.73 516.334 314.109 516.19C314.498 516.048 314.869 515.86 315.214 515.63C315.57 515.41 315.906 515.157 316.216 514.876C316.528 514.603 316.815 514.316 317.075 514.043V504.65C317.09 504.21 317.033 503.771 316.906 503.349C316.822 503.067 316.66 502.814 316.437 502.621C316.19 502.43 315.9 502.305 315.592 502.256C315.188 502.189 314.778 502.159 314.369 502.165V501.489H320.08V513.705C320.08 513.887 320.08 514.121 320.08 514.408C320.091 514.689 320.134 514.969 320.21 515.24C320.27 515.489 320.385 515.72 320.548 515.917C320.623 516.013 320.72 516.09 320.831 516.14C320.943 516.19 321.064 516.211 321.186 516.203C321.694 516.202 322.197 516.105 322.669 515.917L322.916 516.567L317.855 518.662Z" fill="#B76979"/>
<path d="M350.029 509.191C350.026 510.334 349.868 511.472 349.56 512.573C349.258 513.66 348.769 514.685 348.116 515.605C347.48 516.5 346.665 517.253 345.722 517.816C344.708 518.392 343.558 518.684 342.392 518.662C341.672 518.664 340.958 518.536 340.284 518.285C339.607 518.022 338.988 517.628 338.463 517.127V522.201C338.457 522.709 338.483 523.218 338.541 523.723C338.563 524.071 338.685 524.405 338.892 524.686C339.105 524.946 339.398 525.128 339.725 525.206C340.225 525.34 340.742 525.406 341.26 525.401V526.104H332.504V525.401C333.039 525.402 333.571 525.341 334.092 525.219C334.424 525.147 334.723 524.963 334.937 524.699C335.14 524.411 335.261 524.074 335.289 523.723C335.346 523.187 335.372 522.648 335.367 522.11V506.394C335.367 506.121 335.367 505.821 335.367 505.483C335.373 505.163 335.338 504.844 335.262 504.533C335.207 504.256 335.076 504 334.885 503.792C334.767 503.683 334.627 503.599 334.475 503.548C334.322 503.496 334.161 503.478 334.001 503.493C333.576 503.487 333.156 503.585 332.778 503.779L332.582 503.128L337.786 501.06H338.476V504.963C338.768 504.463 339.089 503.981 339.439 503.519C339.78 503.036 340.182 502.598 340.636 502.218C341.068 501.846 341.555 501.544 342.08 501.32C342.623 501.092 343.207 500.977 343.797 500.982C344.786 500.961 345.761 501.223 346.607 501.736C347.386 502.235 348.047 502.896 348.546 503.675C349.059 504.476 349.441 505.355 349.677 506.277C349.919 507.229 350.037 508.208 350.029 509.191ZM347.127 510.921C347.124 510.084 347.054 509.249 346.919 508.423C346.796 507.565 346.551 506.728 346.191 505.938C345.853 505.197 345.356 504.539 344.734 504.013C344.051 503.483 343.203 503.211 342.34 503.245C341.944 503.244 341.555 503.343 341.208 503.532C340.832 503.732 340.479 503.972 340.154 504.247C339.832 504.526 339.527 504.826 339.243 505.145L338.463 506.043V512.248C338.461 512.909 338.5 513.57 338.58 514.226C338.653 514.817 338.833 515.391 339.113 515.917C339.389 516.404 339.795 516.804 340.284 517.075C340.92 517.396 341.628 517.549 342.34 517.517C343.141 517.546 343.931 517.328 344.604 516.893C345.21 516.494 345.71 515.954 346.061 515.319C346.439 514.657 346.715 513.942 346.88 513.198C347.038 512.449 347.12 511.686 347.127 510.921Z" fill="#B76979"/>
<path d="M398.854 518.115V517.413C399.132 517.432 399.41 517.432 399.687 517.413C399.963 517.38 400.231 517.301 400.481 517.179C400.714 517.071 400.919 516.911 401.079 516.71C401.255 516.479 401.342 516.193 401.326 515.904C401.295 515.458 401.199 515.02 401.04 514.603C400.845 514.03 400.624 513.432 400.39 512.833C400.155 512.235 399.908 511.65 399.674 511.116C399.44 510.583 399.258 510.218 399.167 509.984H389.631C389.631 510.114 389.474 510.336 389.331 510.622C389.188 510.908 389.045 511.259 388.863 511.637C388.681 512.014 388.512 512.417 388.343 512.833C388.173 513.25 387.991 513.653 387.848 514.056C387.703 514.418 387.577 514.787 387.471 515.162C387.391 515.42 387.343 515.686 387.328 515.956C387.321 516.101 387.345 516.245 387.399 516.38C387.453 516.515 387.535 516.636 387.64 516.736C387.857 516.949 388.12 517.109 388.408 517.205C388.71 517.319 389.024 517.398 389.344 517.439L390.19 517.517V518.22H382.384V517.517C382.909 517.516 383.425 517.377 383.88 517.114C384.301 516.852 384.671 516.517 384.973 516.125C385.292 515.725 385.563 515.288 385.78 514.824C386.014 514.343 386.222 513.848 386.43 513.367L395.121 493.137H395.745L404.28 513.523C404.527 514.082 404.748 514.59 404.969 515.071C405.168 515.539 405.431 515.977 405.75 516.372C406.052 516.735 406.429 517.028 406.855 517.231C407.377 517.475 407.945 517.604 408.521 517.608V518.311L398.854 518.115ZM394.47 498.601L390.19 508.605H398.659L394.47 498.601Z" fill="#B76979"/>
<path d="M431.366 503.024C431.367 503.244 431.323 503.463 431.238 503.666C431.153 503.869 431.029 504.054 430.872 504.208C430.723 504.37 430.542 504.499 430.34 504.587C430.139 504.674 429.921 504.718 429.701 504.715C429.435 504.719 429.173 504.647 428.946 504.507C428.713 504.376 428.487 504.233 428.27 504.078L427.671 503.649C427.518 503.518 427.325 503.445 427.125 503.44C426.846 503.46 426.585 503.586 426.396 503.792C426.136 504.041 425.9 504.316 425.694 504.611C425.486 504.924 425.277 505.223 425.108 505.535C424.939 505.847 424.809 506.068 424.718 506.225V514.317C424.663 515.151 424.877 515.981 425.329 516.684C425.629 516.981 425.992 517.206 426.391 517.341C426.79 517.476 427.214 517.519 427.632 517.465V518.168H419.046V517.465C419.535 517.477 420.025 517.429 420.503 517.322C420.814 517.248 421.09 517.069 421.283 516.815C421.478 516.534 421.591 516.205 421.609 515.865C421.609 515.475 421.674 514.993 421.674 514.408V507.721C421.674 507.526 421.674 507.239 421.674 506.862C421.674 506.485 421.674 506.068 421.609 505.652C421.586 505.259 421.533 504.867 421.452 504.481C421.414 504.193 421.302 503.92 421.127 503.688C420.835 503.55 420.514 503.483 420.191 503.492C419.802 503.5 419.418 503.579 419.059 503.727L418.864 503.076L423.989 501.06H424.679V504.82C424.907 504.372 425.158 503.938 425.433 503.519C425.722 503.087 426.048 502.682 426.409 502.309C426.753 501.942 427.147 501.627 427.58 501.372C428.002 501.124 428.483 500.993 428.972 500.995C429.263 501 429.552 501.043 429.831 501.125C430.384 501.289 430.85 501.662 431.132 502.166C431.28 502.428 431.361 502.723 431.366 503.024Z" fill="#B76979"/>
<path d="M451.609 515.058C451.467 515.514 451.271 515.951 451.024 516.359C450.779 516.788 450.467 517.174 450.1 517.504C449.749 517.841 449.344 518.118 448.903 518.324C448.455 518.533 447.966 518.639 447.472 518.636C446.916 518.659 446.363 518.533 445.872 518.272C445.455 518.03 445.102 517.691 444.844 517.283C444.581 516.853 444.405 516.376 444.324 515.878C444.232 515.363 444.189 514.84 444.194 514.317V502.738H441.592V502.192C442.22 501.946 442.801 501.594 443.309 501.151C443.834 500.695 444.309 500.185 444.727 499.629C445.152 499.062 445.531 498.462 445.859 497.833C446.184 497.209 446.47 496.61 446.717 496.025H447.264V501.515H451.167V502.738H447.264V513.835C447.268 514.131 447.29 514.427 447.329 514.72C447.366 515.027 447.44 515.329 447.55 515.618C447.658 515.887 447.827 516.128 448.044 516.32C448.282 516.505 448.576 516.601 448.877 516.594C449.347 516.616 449.809 516.468 450.178 516.177C450.517 515.869 450.78 515.486 450.946 515.058H451.609Z" fill="#B76979"/>
<path d="M462.837 518.115V517.413C463.273 517.422 463.71 517.383 464.138 517.296C464.461 517.266 464.767 517.134 465.009 516.919C465.202 516.678 465.327 516.391 465.374 516.086C465.442 515.656 465.473 515.22 465.465 514.785V505.912C465.465 505.704 465.465 505.457 465.465 505.171C465.44 504.901 465.388 504.635 465.309 504.377C465.239 504.129 465.105 503.904 464.918 503.727C464.83 503.635 464.722 503.563 464.603 503.515C464.484 503.468 464.357 503.447 464.229 503.453C464.013 503.451 463.798 503.481 463.591 503.544L462.928 503.74L462.681 503.089L467.715 501.073H468.509V514.785C468.501 515.22 468.532 515.656 468.6 516.086C468.65 516.392 468.78 516.679 468.977 516.919C469.182 517.139 469.45 517.289 469.745 517.348C470.173 517.435 470.609 517.474 471.046 517.465V518.167L462.837 518.115ZM468.743 495.843C468.747 496.083 468.702 496.322 468.613 496.545C468.524 496.768 468.391 496.972 468.223 497.144C468.058 497.324 467.857 497.467 467.633 497.564C467.408 497.66 467.166 497.708 466.922 497.703C466.681 497.704 466.442 497.657 466.218 497.566C465.995 497.474 465.792 497.34 465.621 497.17C465.45 496.999 465.314 496.797 465.223 496.573C465.131 496.35 465.085 496.11 465.087 495.869C465.08 495.626 465.123 495.385 465.215 495.161C465.307 494.937 465.445 494.735 465.621 494.568C465.793 494.399 465.996 494.267 466.219 494.177C466.443 494.088 466.681 494.044 466.922 494.047C467.163 494.044 467.403 494.09 467.627 494.181C467.85 494.273 468.053 494.409 468.223 494.581C468.393 494.743 468.527 494.939 468.617 495.156C468.707 495.374 468.75 495.608 468.743 495.843Z" fill="#B76979"/>
<path d="M494.815 513.926C494.825 514.611 494.649 515.285 494.308 515.878C493.969 516.448 493.528 516.95 493.007 517.361C491.92 518.196 490.591 518.653 489.221 518.662C488.819 518.662 488.42 518.601 488.037 518.48C487.621 518.363 487.23 518.233 486.84 518.089L485.747 517.686C485.442 517.578 485.121 517.52 484.797 517.517C484.757 517.519 484.718 517.529 484.682 517.547C484.646 517.565 484.615 517.59 484.589 517.621C484.524 517.621 484.459 517.777 484.394 517.855C484.339 517.947 484.291 518.042 484.251 518.142L484.147 518.35H483.523V512.443H484.147C484.273 513.093 484.474 513.726 484.745 514.33C485.007 514.925 485.363 515.474 485.799 515.956C486.212 516.43 486.717 516.815 487.282 517.088C487.886 517.38 488.55 517.527 489.221 517.517C489.586 517.517 489.95 517.465 490.301 517.361C490.633 517.263 490.943 517.099 491.211 516.88C491.474 516.67 491.691 516.409 491.849 516.112C492.011 515.785 492.092 515.423 492.083 515.058C492.108 514.357 491.882 513.67 491.446 513.12C491.001 512.564 490.464 512.088 489.858 511.715C489.19 511.296 488.499 510.914 487.79 510.57C487.071 510.214 486.38 509.805 485.721 509.347C485.1 508.904 484.559 508.358 484.121 507.734C483.673 507.052 483.45 506.246 483.484 505.431C483.466 504.744 483.623 504.064 483.939 503.453C484.241 502.91 484.653 502.436 485.149 502.061C485.666 501.685 486.248 501.407 486.866 501.242C487.516 501.071 488.185 500.983 488.857 500.982C489.172 500.984 489.485 501.019 489.793 501.086C490.101 501.141 490.405 501.215 490.704 501.307L491.602 501.541C491.901 501.604 492.206 501.635 492.512 501.632C492.6 501.633 492.686 501.617 492.767 501.583C492.847 501.55 492.92 501.5 492.981 501.437C493.105 501.303 493.206 501.149 493.28 500.982H493.93V506.667H493.28C493.151 506.075 492.968 505.495 492.733 504.937C492.513 504.408 492.22 503.913 491.862 503.466C491.507 503.028 491.063 502.669 490.561 502.413C490.011 502.142 489.404 502.008 488.791 502.022C488.425 502.021 488.06 502.052 487.699 502.113C487.337 502.175 486.986 502.289 486.658 502.452C486.348 502.608 486.084 502.841 485.89 503.128C485.679 503.467 485.574 503.861 485.591 504.26C485.564 504.975 485.811 505.672 486.281 506.211C486.771 506.739 487.347 507.179 487.985 507.512C488.703 507.907 489.441 508.263 490.197 508.579C490.967 508.904 491.707 509.296 492.408 509.75C493.079 510.179 493.658 510.736 494.112 511.389C494.618 512.136 494.864 513.027 494.815 513.926Z" fill="#B76979"/>
<path d="M516.333 515.058C516.19 515.512 515.998 515.948 515.761 516.359C515.507 516.782 515.196 517.167 514.837 517.504C514.479 517.839 514.07 518.115 513.627 518.324C513.179 518.534 512.69 518.641 512.196 518.636C511.64 518.658 511.088 518.532 510.596 518.272C510.18 518.033 509.831 517.693 509.581 517.283C509.314 516.854 509.133 516.376 509.048 515.878C508.954 515.337 508.906 514.788 508.904 514.239V502.738H506.302V502.192C506.931 501.946 507.512 501.594 508.02 501.151C508.552 500.699 509.032 500.188 509.451 499.629C509.867 499.056 510.246 498.456 510.583 497.833C510.908 497.209 511.194 496.61 511.428 496.025H511.988V501.515H515.891V502.738H511.988V513.835C511.97 514.13 511.97 514.425 511.988 514.72C512.023 515.029 512.101 515.331 512.222 515.618C512.32 515.892 512.491 516.135 512.716 516.32C512.954 516.505 513.248 516.601 513.549 516.594C514.019 516.62 514.482 516.471 514.85 516.177C515.193 515.87 515.46 515.487 515.631 515.058H516.333Z" fill="#B76979"/>
<path d="M118.896 363.689H124.686V214.779H125.063L178.715 363.689H245.456L188.343 208.599H95.752V213.608H118.896V363.689Z" fill="url(#paint1_linear_6_290)"/>
<path d="M204.774 436.023L221.518 482.521H227.307L243.921 436.023H204.774Z" fill="url(#paint2_linear_6_290)"/>
<path d="M124.686 436.023H118.896V473.648H95.752V478.657H147.83V473.648H124.686V436.023Z" fill="url(#paint3_linear_6_290)"/>
<path d="M491.628 436.023H430.677V473.648H408.248H407.519H385.103V436.023H323.372V473.648H300.227V478.657H407.519H408.248H517.088V473.648H491.628V436.023Z" fill="url(#paint4_linear_6_290)"/>
<path d="M408.248 208.586H319.13L263.67 363.663H269.771L322.981 214.753H323.372V363.676H385.103V213.608H430.637V363.676H491.588V345.189H506.641C515.513 345.189 525.544 345.189 532.868 346.347C560.267 349.053 570.688 364.483 571.833 389.566H576.894V301.19H571.872C569.946 322.786 558.381 335.913 532.53 338.606C526.741 339.764 517.1 339.764 508.215 339.764H491.627V213.998H514.447C536.056 213.998 555.336 214.766 569.621 222.103C583.503 229.818 592.765 244.09 595.458 271.541H600.871V208.586H408.248Z" fill="url(#paint5_linear_6_290)"/>
<path d="M127.613 409.223C127.021 410.713 126.303 412.149 125.467 413.517C124.364 414.873 123.168 416.151 121.889 417.342C120.718 417.121 119.59 416.717 118.545 416.145C118.064 415.793 117.947 414.115 117.947 412.684C117.947 411.617 118.064 410.668 118.064 410.537C118.545 402.914 119.859 393.963 119.859 386.339V385.389C115.87 391.465 112.359 397.841 109.36 404.462C105.197 413.4 101.255 422.35 97.9248 431.639C97.4435 432.94 97.4435 434.632 96.4938 435.542C95.0627 436.843 93.5145 438.04 92.4347 438.04C91.7192 438.04 91.2378 437.572 91.2378 436.141C91.341 435.096 91.5017 434.058 91.7192 433.031C95.2063 412.73 99.7837 392.631 105.431 372.822C105.803 370.987 106.621 369.271 107.812 367.826C108.775 368.177 109.842 368.529 110.792 368.893C110.537 370.448 110.101 371.968 109.491 373.42C103.88 390.768 99.532 408.499 96.4808 426.474C102.673 412.892 107.201 398.217 115.319 385.702C116.62 383.672 118.181 380.094 120.796 380.094C121.893 380.16 122.938 380.58 123.775 381.291C124.158 381.775 124.44 382.33 124.606 382.925C124.771 383.519 124.816 384.14 124.738 384.752V386.3C124.738 395.485 122.591 402.276 122.344 410.746C128.186 401.795 133.077 391.543 137.852 381.656C141.43 374.136 145.593 366.981 148.26 358.993C148.494 358.277 148.377 357.093 149.092 356.846C149.709 356.646 150.358 356.567 151.005 356.612C151.955 356.612 153.034 356.729 153.984 356.729H154.335C154.218 358.16 154.218 359.825 153.984 361.256C153.62 363.169 152.904 364.834 152.436 366.746C148.975 379.379 145.762 392.376 143.329 405.971C140.35 423.144 142.379 410.03 140.116 426.006C139.751 428.504 139.036 431.015 138.919 433.513C138.802 435.425 138.802 437.325 138.802 439.237H138.567C137.732 435.075 137.253 430.848 137.136 426.605C137.33 419.632 138.127 412.689 139.517 405.854C141.664 394.145 144.292 381.656 146.673 369.96C139.764 382.762 134.17 395.992 127.613 409.223Z" fill="#B76979"/>
<path d="M164.925 433.071C160.749 433.071 158.603 429.506 158.603 424.731C158.779 419.839 160.4 415.109 163.26 411.136C163.845 410.303 164.444 409.588 165.042 408.872C166.239 407.675 168.269 405.178 170.246 405.178C170.363 405.178 170.611 405.295 170.728 405.295C171.835 404.481 173.166 404.027 174.54 403.994C178.234 403.994 180.745 407.897 180.745 412.346C180.669 414.561 180.266 416.753 179.548 418.851C181.963 420.093 184.639 420.744 187.354 420.75C191.727 420.418 195.872 418.663 199.154 415.754L200.351 417.186C195.821 421.085 190.112 423.349 184.141 423.612C181.998 423.609 179.867 423.289 177.818 422.663C175.06 428.309 170.285 433.071 164.925 433.071ZM168.386 414.714C166.356 418.174 163.494 423.821 163.494 426.761C163.494 429.025 164.21 429.857 165.277 429.857C168.737 429.857 173.082 426.995 175.775 421.869C174.127 421.232 172.624 420.27 171.355 419.041C170.085 417.812 169.076 416.341 168.386 414.714ZM177.805 413.413C177.805 411.032 176.244 408.768 174.826 408.768C173.98 408.768 173.265 409.484 173.265 411.266C173.265 413.413 174.826 415.807 177.324 417.589C177.607 416.209 177.768 414.808 177.805 413.4V413.413Z" fill="#B76979"/>
<path d="M216.782 411.253C217.109 411.232 217.436 411.276 217.745 411.383C220.842 412.567 221.193 415.429 221.193 418.174C221.193 419.957 220.724 422.22 220.724 423.899C220.724 425.33 221.076 426.279 222.273 426.279C227.867 426.279 241.462 419.124 244.806 415.793L246.003 417.224C242.542 420.672 225.85 430.69 218.331 430.69C215.729 430.69 215 429.506 215 427.229C215 425.33 215.468 422.585 215.468 419.241C215.468 418.89 215.351 417.693 215.234 416.86C209.874 419.722 206.648 422.064 203.786 425.681C203.669 425.798 200.806 429.376 200.455 429.74C199.492 430.573 198.426 431.041 197.476 431.769C196.396 431.171 194.484 431.054 194.484 429.376C194.509 428.609 194.632 427.848 194.848 427.112C196.63 419.007 197.593 411.969 198.543 404.995C198.894 404.995 199.375 404.865 199.74 404.865C202.953 404.865 204.15 407.857 204.15 410.589C203.933 413.567 203.289 416.499 202.238 419.293C201.886 420.724 201.288 422.155 200.806 423.586C204.033 420.724 207.728 418.578 210.707 415.364C212.138 413.998 214.519 411.253 216.782 411.253Z" fill="#B76979"/>
<path d="M245.144 413.647C245.976 411.5 247.056 410.537 248.006 410.537C249.307 410.537 250.27 412.099 250.27 414.362C250.278 415.375 250.115 416.383 249.788 417.342C248.963 419.275 248.44 421.324 248.24 423.417C248.24 425.212 249.073 426.162 250.504 426.162C255.044 426.162 263.266 419.124 266.61 415.754L267.794 417.185C264.359 420.646 253.977 429.753 246.237 429.753C244.441 429.753 243.127 428.803 243.127 425.577C243.172 423.236 243.535 420.912 244.207 418.669C244.35 416.968 244.664 415.285 245.144 413.647ZM246.809 393.247C246.809 393.13 247.056 393.013 247.173 393.013L250.035 388.967C250.939 389.513 251.695 390.274 252.235 391.182C252.775 392.089 253.083 393.116 253.132 394.171C253.132 394.639 253.015 395.004 253.015 395.472C252.735 396.81 252.166 398.071 251.349 399.167L250.751 399.284C248.715 397.85 247.309 395.689 246.822 393.247H246.809Z" fill="#B76979"/>
<path d="M267.456 423.066C267.456 425.668 269.238 426.761 271.866 426.761C278.904 426.761 290.47 419.488 294.165 415.793L295.349 417.224C291.446 421.127 278.306 429.506 269.836 429.506C268.943 429.561 268.048 429.432 267.208 429.126C266.367 428.82 265.598 428.344 264.95 427.727C264.301 427.11 263.787 426.367 263.439 425.542C263.092 424.718 262.918 423.831 262.928 422.936C262.928 416.431 270.318 407.441 275.444 407.441C275.839 407.381 276.242 407.412 276.623 407.533C277.004 407.653 277.352 407.86 277.64 408.137C277.928 408.414 278.148 408.753 278.284 409.129C278.42 409.504 278.467 409.906 278.423 410.303C278.364 410.913 278.242 411.514 278.059 412.099C277.707 413.165 275.457 413.881 274.611 413.881C274.364 413.881 274.247 413.881 274.247 413.764C274.247 413.283 274.494 412.931 274.494 412.567C274.494 411.969 274.364 411.617 274.013 411.617C272.699 411.617 267.456 417.81 267.456 423.066Z" fill="#B76979"/>
<path d="M319.794 425.083C319.794 426.995 320.393 428.426 321.342 428.426C326.949 428.426 340.779 419.124 344.109 415.794L345.306 417.225C343.277 419.241 326.468 432.602 318.246 432.602C315.501 432.602 313.588 431.054 313.588 427.112C313.677 425.048 314.04 423.005 314.668 421.037C314.785 420.438 315.137 419.605 315.384 418.773C315.696 418.151 315.974 417.513 316.216 416.86C316.213 416.799 316.188 416.742 316.144 416.698C316.101 416.655 316.043 416.629 315.982 416.626C307.031 421.388 303.337 425.447 294.75 426.878C293.575 426.831 292.463 426.336 291.642 425.494C290.822 424.651 290.356 423.526 290.34 422.351C290.34 416.977 301.19 406.609 312.157 406.609C315.618 406.609 318.363 407.806 319.43 410.512C321.225 410.876 321.941 412.424 321.941 414.415C321.902 418.291 319.794 421.271 319.794 425.083ZM311.494 410.238C302.556 410.238 293.488 421.323 293.488 423.118C293.488 424.185 294.919 424.302 295.765 424.302C303.753 422.871 306.368 418.226 313.758 412.736L315.553 411.669C315.003 411.176 314.362 410.796 313.666 410.55C312.969 410.304 312.231 410.199 311.494 410.238Z" fill="#B76979"/>
<path d="M359.019 375.372C358.242 373.906 357.677 372.338 357.34 370.714C357.36 370.113 357.442 369.516 357.588 368.932C358.618 367.994 359.733 367.154 360.918 366.421C362.447 366.089 364.014 365.971 365.576 366.07C372.312 366.184 379.027 366.863 385.65 368.099C391.023 369.049 392.324 369.166 397.58 370.363C399.431 370.68 401.261 371.114 403.057 371.664C408.898 374.409 405.919 373.329 411.76 374.995L411.643 375.125L407.949 374.643C407.682 374.739 407.399 374.779 407.116 374.76C403.517 374.58 399.933 374.18 396.383 373.564C386.73 372.015 376.868 369.661 366.226 369.661C365.511 369.661 364.548 369.778 363.832 369.778C363.117 369.778 361.803 370.493 360.736 370.727C361.024 371.901 361.38 373.056 361.803 374.188C364.574 381.302 366.457 388.73 367.41 396.305C368.958 390.58 370.506 384.973 371.937 379.392C372.653 376.894 373.238 373.433 374.448 371.17L377.545 371.521C377.461 372.213 377.299 372.894 377.063 373.551C374.682 382.657 372.067 391.673 369.557 400.741C371.426 400.259 373.35 400.019 375.281 400.025C376.562 399.956 377.846 400.075 379.093 400.377C379.792 400.774 380.47 401.208 381.122 401.678L381.005 402.042C377.427 403.46 372.653 403.707 368.49 404.644C368.36 405.242 368.125 405.841 368.008 406.439C367.84 414.201 366.596 421.903 364.314 429.324C363.949 430.273 364.066 431.587 363.234 432.186C362.333 432.883 361.266 433.332 360.137 433.487C359.188 433.487 358.941 432.654 358.941 431.691C358.997 430.614 359.119 429.541 359.305 428.478C361.087 420.841 363 413.1 365.029 405.346H364.665L362.401 404.15C362.755 403.559 363.222 403.045 363.776 402.636C364.33 402.227 364.959 401.933 365.628 401.769C365.102 392.633 362.86 383.678 359.019 375.372Z" fill="#B76979"/>
<path d="M391.803 422.702C391.803 425.564 394.067 426.761 396.812 426.761C403.837 426.761 415.403 419.488 419.098 415.793L420.295 417.224C416.392 421.127 403.252 429.506 394.782 429.506C391.205 429.506 387.146 427.71 387.146 423.651C387.146 416.626 392.753 408.989 398.243 407.675C398.664 407.541 399.102 407.462 399.544 407.441C399.947 407.396 400.354 407.442 400.737 407.575C401.12 407.709 401.468 407.927 401.755 408.213C402.042 408.499 402.262 408.845 402.397 409.228C402.532 409.61 402.58 410.017 402.536 410.42C402.503 410.986 402.42 411.547 402.289 412.099C401.664 414.213 400.378 416.071 398.619 417.4C396.861 418.73 394.723 419.462 392.519 419.488C392.096 420.51 391.854 421.597 391.803 422.702ZM398.659 412.45C398.659 411.851 398.425 411.617 398.061 411.617C397.111 411.617 394.964 413.998 393.416 417.094C396.213 416.977 398.659 415.793 398.659 412.45Z" fill="#B76979"/>
<path d="M429.35 425.213C429.35 427.711 430.195 428.79 431.496 428.79C436.7 428.79 448.188 418.174 450.582 415.781L451.766 417.212C446.288 422.689 435.191 433.305 428.764 433.305C425.772 433.305 424.224 431.275 424.224 428.101C424.224 421.18 429.948 416.887 429.948 409.016C429.948 406.271 428.166 402.823 427.203 402.823C426.852 402.823 426.618 403.408 426.618 404.605C426.618 409.965 423.638 413.907 420.295 417.251H419.696L419.098 415.82C420.391 414.565 421.417 413.062 422.114 411.401C422.812 409.74 423.166 407.955 423.157 406.153C423.188 403.569 422.35 401.049 420.776 398.998C420.893 397.567 424.107 396.266 424.107 396.266C431.978 397.697 434.358 402.342 434.358 407.975C434.358 414.831 429.35 419.241 429.35 425.213Z" fill="#B76979"/>
<path d="M460.834 425.213C460.834 427.711 461.666 428.79 462.98 428.79C468.184 428.79 479.672 418.174 482.053 415.781L483.249 417.212C477.759 422.689 466.675 433.305 460.235 433.305C457.256 433.305 455.708 431.275 455.708 428.101C455.708 421.18 461.419 416.887 461.419 409.016C461.419 406.271 459.637 402.823 458.687 402.823C458.323 402.823 458.088 403.408 458.088 404.605C458.088 409.965 455.109 413.907 451.766 417.251H451.167L450.582 415.82C451.87 414.562 452.893 413.059 453.588 411.398C454.283 409.737 454.637 407.954 454.628 406.153C454.659 403.569 453.82 401.049 452.247 398.998C452.364 397.567 455.578 396.266 455.578 396.266C463.448 397.697 465.842 402.342 465.842 407.975C465.842 414.831 460.834 419.241 460.834 425.213Z" fill="#B76979"/>
<path d="M483.119 422.702C483.119 425.564 485.383 426.761 488.128 426.761C495.166 426.761 506.732 419.488 510.427 415.793L511.611 417.225C507.708 421.128 494.568 429.506 486.098 429.506C482.521 429.506 478.475 427.71 478.475 423.651C478.475 416.626 484.082 408.989 489.559 407.675C489.981 407.542 490.418 407.464 490.86 407.441C491.262 407.396 491.67 407.441 492.052 407.575C492.434 407.708 492.781 407.927 493.068 408.213C493.354 408.499 493.572 408.846 493.706 409.229C493.839 409.611 493.885 410.018 493.839 410.42C493.811 410.986 493.733 411.547 493.605 412.099C492.977 414.214 491.689 416.072 489.928 417.402C488.168 418.732 486.028 419.463 483.822 419.488C483.409 420.513 483.172 421.599 483.119 422.702ZM490.04 412.45C490.04 411.852 489.793 411.617 489.442 411.617C488.492 411.617 486.346 413.998 484.784 417.094C487.529 416.977 490.04 415.794 490.04 412.45Z" fill="#B76979"/>
<path d="M510.778 413.647C511.611 411.5 512.69 410.537 513.64 410.537C514.941 410.537 515.904 412.099 515.904 414.362C515.911 415.374 515.752 416.38 515.435 417.342C514.601 419.273 514.074 421.323 513.874 423.417C513.874 425.212 514.72 426.162 516.151 426.162C520.678 426.162 528.901 419.124 532.244 415.754L533.428 417.185C529.98 420.646 519.651 429.753 511.845 429.753C510.049 429.753 508.735 428.803 508.735 425.577C508.78 423.236 509.143 420.912 509.815 418.669C509.967 416.967 510.29 415.284 510.778 413.647ZM512.443 393.247C512.443 393.13 512.69 393.013 512.807 393.013L515.67 388.967C516.574 389.513 517.329 390.274 517.869 391.182C518.409 392.089 518.717 393.116 518.766 394.171C518.766 394.639 518.649 395.004 518.649 395.472C518.369 396.81 517.801 398.071 516.984 399.167L516.385 399.284C514.349 397.849 512.938 395.689 512.443 393.247Z" fill="#B76979"/>
<path d="M542.496 425.213C542.496 427.711 543.329 428.79 544.643 428.79C549.847 428.79 561.334 418.174 563.715 415.781L564.912 417.212C559.422 422.689 548.338 433.305 541.898 433.305C538.918 433.305 537.37 431.275 537.37 428.101C537.37 421.18 543.095 416.887 543.095 409.016C543.095 406.271 541.299 402.823 540.35 402.823C539.985 402.823 539.751 403.408 539.751 404.605C539.751 409.965 536.772 413.907 533.428 417.251H532.843L532.244 415.82C533.533 414.562 534.555 413.059 535.25 411.398C535.946 409.737 536.299 407.954 536.29 406.153C536.322 403.569 535.483 401.049 533.91 398.998C534.027 397.567 537.253 396.266 537.253 396.266C545.059 397.697 547.505 402.342 547.505 407.975C547.505 414.831 542.496 419.241 542.496 425.213Z" fill="#B76979"/>
<path d="M589.344 425.082C589.344 426.995 589.942 428.426 590.892 428.426C596.499 428.426 616.912 421.491 618.213 420.62L618.98 422.064C616.652 423.43 596.031 432.628 587.757 432.628C585.012 432.628 583.112 431.08 583.112 427.138C583.196 425.074 583.554 423.031 584.179 421.062C584.296 420.464 584.66 419.631 584.895 418.798C585.212 418.179 585.491 417.54 585.727 416.886C585.724 416.825 585.698 416.767 585.655 416.724C585.612 416.681 585.554 416.655 585.493 416.652C576.555 421.413 572.861 425.472 564.274 426.904C563.099 426.857 561.987 426.362 561.166 425.519C560.346 424.677 559.88 423.552 559.864 422.376C559.864 417.003 570.714 406.634 581.681 406.634C585.142 406.634 587.874 407.831 588.954 410.537C590.736 410.901 591.452 412.45 591.452 414.44C591.491 418.291 589.344 421.27 589.344 425.082ZM581.005 410.238C572.054 410.238 562.999 421.322 562.999 423.118C562.999 424.184 564.43 424.302 565.263 424.302C573.251 422.871 575.879 418.226 583.268 412.736L585.051 411.669C584.503 411.177 583.864 410.797 583.17 410.551C582.476 410.306 581.74 410.199 581.005 410.238Z" fill="#B76979"/>
<path d="M181.864 401.3L184.336 398.907" stroke="#B76979" stroke-width="1.5" stroke-linecap="round" stroke-linejoin="round"/>
</g>
<defs>
<linearGradient id="paint0_linear_6_290" x1="-0.741557" y1="346.505" x2="688.44" y2="346.505" gradientUnits="userSpaceOnUse">
<stop offset="0.12" stop-color="#E8A08F"/>
<stop offset="0.32" stop-color="#F7D3C7"/>
<stop offset="1" stop-color="#C06F70"/>
</linearGradient>
<linearGradient id="paint1_linear_6_290" x1="95.752" y1="286.138" x2="245.456" y2="286.138" gradientUnits="userSpaceOnUse">
<stop stop-color="#D0928A"/>
<stop offset="0.33" stop-color="#FFD2CA"/>
<stop offset="0.69" stop-color="#C5827A"/>
<stop offset="1" stop-color="#9F5E49"/>
</linearGradient>
<linearGradient id="paint2_linear_6_290" x1="204.774" y1="459.272" x2="243.921" y2="459.272" gradientUnits="userSpaceOnUse">
<stop stop-color="#D0928A"/>
<stop offset="0.33" stop-color="#FFD2CA"/>
<stop offset="0.69" stop-color="#C5827A"/>
<stop offset="1" stop-color="#9F5E49"/>
</linearGradient>
<linearGradient id="paint3_linear_6_290" x1="95.752" y1="457.347" x2="147.83" y2="457.347" gradientUnits="userSpaceOnUse">
<stop stop-color="#D0928A"/>
<stop offset="0.33" stop-color="#FFD2CA"/>
<stop offset="0.69" stop-color="#C5827A"/>
<stop offset="1" stop-color="#9F5E49"/>
</linearGradient>
<linearGradient id="paint4_linear_6_290" x1="300.227" y1="457.347" x2="517.088" y2="457.347" gradientUnits="userSpaceOnUse">
<stop stop-color="#D0928A"/>
<stop offset="0.33" stop-color="#FFD2CA"/>
<stop offset="0.69" stop-color="#C5827A"/>
<stop offset="1" stop-color="#9F5E49"/>
</linearGradient>
<linearGradient id="paint5_linear_6_290" x1="263.67" y1="299.069" x2="600.819" y2="299.069" gradientUnits="userSpaceOnUse">
<stop stop-color="#D0928A"/>
<stop offset="0.33" stop-color="#FFD2CA"/>
<stop offset="0.69" stop-color="#C5827A"/>
<stop offset="1" stop-color="#9F5E49"/>
</linearGradient>
<clipPath id="clip0_6_290">
<rect width="682" height="693.019" fill="white"/>
</clipPath>
</defs>
</svg>
